<?xml version="1.0" encoding="utf-8"?>
<!-- Generator: Adobe Illustrator 22.1.0, SVG Export Plug-In . SVG Version: 6.00 Build 0)  -->
<svg version="1.1" xmlns="http://www.w3.org/2000/svg" xmlns:xlink="http://www.w3.org/1999/xlink" x="0px" y="0px"
	 viewBox="0 0 425.2 425.2" style="enable-background:new 0 0 425.2 425.2;" xml:space="preserve">
<style type="text/css">
	.st0{display:none;}
	.st1{display:inline;}
	.st2{display:inline;opacity:0.1;}
	.st3{fill:#FF0000;}
	.st4{fill:#CCCCCC;stroke:#1D1D1B;stroke-width:3;stroke-linecap:round;stroke-miterlimit:10;}
	.st5{fill:#333333;}
	.st6{fill:#595757;}
	.st7{fill:#595757;stroke:#000000;stroke-miterlimit:10;}
	.st8{fill:#333333;stroke:#000000;stroke-width:0.25;stroke-miterlimit:10;}
	.st9{fill:#595757;stroke:#000000;stroke-width:0.25;stroke-miterlimit:10;}
	.st10{fill:#595757;stroke:#000000;stroke-width:0.1;stroke-miterlimit:10;}
	.st11{fill:none;stroke:#000000;stroke-miterlimit:10;}
	.st12{fill:none;stroke:#FF0000;stroke-width:4;stroke-miterlimit:10;}
	.st13{fill:none;stroke:#FF0000;stroke-width:2;stroke-miterlimit:10;}
	.st14{fill:none;stroke:#FF0000;stroke-miterlimit:10;}
	.st15{fill:none;stroke:#FFD233;stroke-width:3;stroke-miterlimit:10;}
	.st16{fill:none;stroke:#FFD233;stroke-width:4;stroke-miterlimit:10;}
	.st17{fill:none;stroke:#FFCC00;stroke-width:3;stroke-miterlimit:10;}
	.st18{fill:#FFFFFF;stroke:#FFFFFF;stroke-width:4;stroke-miterlimit:10;}
	.st19{fill:#808080;}
	.st20{fill:#808080;stroke:#000000;stroke-width:0.1;stroke-miterlimit:10;}
	.st21{fill:#333333;stroke:#000000;stroke-miterlimit:10;}
	.st22{fill:#FFFDFD;stroke:#000000;stroke-width:0.1;stroke-miterlimit:10;}
	.st23{fill:#3399CC;}
	.st24{fill:#FFFFFF;}
	.st25{fill:#397AE8;stroke:#1D1D1B;stroke-width:0.25;stroke-linecap:round;stroke-miterlimit:10;}
	.st26{stroke:#1D1D1B;stroke-width:0.25;stroke-linecap:round;stroke-miterlimit:10;}
	.st27{fill:#EDEDED;stroke:#1D1D1B;stroke-width:0.25;stroke-linecap:round;stroke-miterlimit:10;}
	.st28{fill:#FFFFFF;stroke:#000000;stroke-miterlimit:10;}
	.st29{fill:#EDEDED;}
	.st30{fill:#397AE8;}
	.st31{fill:none;stroke:#000000;stroke-width:0.15;stroke-miterlimit:10;}
</style>
<g id="Слой_1" class="st0">
	<g class="st1">
		<g>
			<path d="M-38.9,173c1.7,0,2.2-2.3,0.2-2.3C-40.3,170.7-40.8,173-38.9,173L-38.9,173z"/>
		</g>
	</g>
	<g class="st2">
		<g>
			<path d="M181.8,246.3c-4.1-1.3-7.9-3.3-11.3-5.8c0,0.1-0.1,0.1-0.1,0.2c1.6,0.7,3.2,1.5,4.9,2.2c0-0.1,0.1-0.2,0.1-0.2
				c-5.9-1.9-10.4-7.4-11.2-13.5c0-0.2-0.3-0.2-0.3,0c0.8,6.3,5.4,11.8,11.4,13.8c0.1,0,0.2-0.2,0.1-0.2c-1.6-0.7-3.2-1.5-4.9-2.2
				c-0.1-0.1-0.3,0.1-0.1,0.2c3.4,2.5,7.3,4.5,11.3,5.8C181.9,246.6,182,246.3,181.8,246.3L181.8,246.3z"/>
		</g>
	</g>
	<g class="st2">
		<g>
			<path d="M164.9,233.5c-0.7-2.6-1.3-5.2-2-7.8c0-0.2-0.3-0.1-0.2,0.1c0.7,2.6,1.3,5.2,2,7.8C164.7,233.8,164.9,233.7,164.9,233.5
				L164.9,233.5z"/>
		</g>
	</g>
	<g class="st2">
		<g>
			<path d="M164.4,234.5c-1.1-4.8-2.4-9.5-4-14c0-0.1-0.2-0.1-0.2,0c0,2.1,0.2,4.2,0.6,6.2c0,0.2,0.3,0.1,0.2-0.1
				c-0.5-2-0.7-4.1-0.6-6.2c-0.1,0-0.2,0-0.2,0c1.6,4.6,3,9.3,4,14C164.2,234.7,164.4,234.7,164.4,234.5L164.4,234.5z"/>
		</g>
	</g>
	<g class="st2">
		<g>
			<path d="M162.3,229.1c-1.3-3.9-2.5-7.9-3.8-11.8c-0.3-0.9-0.6-1.9-0.9-2.8c-0.2-0.5-0.3-1.5-0.9-1.8c-0.7-0.3-0.9,0.9-0.3,0.8
				c0.2,0,0.2-0.3,0-0.3c0.3,0,0.4-0.1,0.5,0.1c0.1,0.2,0.2,0.4,0.2,0.6c0.1,0.3,0.2,0.6,0.3,0.9c0.2,0.7,0.4,1.3,0.6,2
				c0.4,1.4,0.9,2.7,1.3,4.1c0.9,2.7,1.8,5.4,2.6,8.1C162.1,229.4,162.4,229.3,162.3,229.1L162.3,229.1z"/>
		</g>
	</g>
	<g class="st2">
		<g>
			<path d="M157.4,223.8c-1.3-8.6-3.1-17.1-5.4-25.5c0-0.2-0.3-0.1-0.2,0.1c2.3,8.4,4.1,16.9,5.4,25.5
				C157.2,224,157.5,223.9,157.4,223.8L157.4,223.8z"/>
		</g>
	</g>
	<g class="st2">
		<g>
			<path d="M155.5,213.5c-1.8-10.1-3.5-20.3-5.3-30.4c0-0.2-0.3-0.1-0.2,0.1c1.8,10.1,3.5,20.3,5.3,30.4
				C155.3,213.7,155.5,213.6,155.5,213.5L155.5,213.5z"/>
		</g>
	</g>
	<g class="st2">
		<g>
			<path d="M157.1,205c-3.4-7.4-5.5-15.3-6-23.4c-0.1-2.3-0.2-4.6-0.1-6.8c0-0.2-0.2-0.2-0.3,0c-0.3,8.1,0.8,16.3,3.5,24
				c0.7,2.2,1.6,4.3,2.6,6.4C156.9,205.3,157.1,205.2,157.1,205L157.1,205z"/>
		</g>
	</g>
	<g class="st2">
		<g>
			<path d="M147.4,186.6c0.5-6.5,1.1-13.5,4.5-19.3c0.9-1.6,2.1-3.1,3.5-4.4c0.1-0.1-0.1-0.3-0.2-0.2c-4.9,4.6-6.6,11.4-7.4,17.9
				c-0.2,2-0.4,3.9-0.6,5.9C147.1,186.7,147.4,186.7,147.4,186.6L147.4,186.6z"/>
		</g>
	</g>
	<g class="st2">
		<g>
			<path d="M149.2,162.7c6.3-5.5,13.5-9.7,21.4-12.4c0.2-0.1,0.1-0.3-0.1-0.2c-7.9,2.7-15.2,7-21.5,12.5
				C148.9,162.6,149.1,162.8,149.2,162.7L149.2,162.7z"/>
		</g>
	</g>
	<g class="st2">
		<g>
			<path d="M157.8,155.2c8.8-3.4,18-5.7,27.4-6.7c2.6-0.3,5.3-0.5,7.9-0.5c0.2,0,0.2-0.3,0-0.3c-9.4,0.3-18.7,1.8-27.7,4.6
				c-2.6,0.8-5.1,1.7-7.6,2.6C157.6,155,157.7,155.3,157.8,155.2L157.8,155.2z"/>
		</g>
	</g>
	<g class="st2">
		<g>
			<path d="M186.2,144.5c9.3,0.3,18.6,0.7,27.9,0.8c2.7,0,5.3,0.1,8,0.1c0.2,0,0.2-0.2,0-0.3c-9.3,0-18.6-0.3-27.9-0.6
				c-2.7-0.1-5.3-0.2-8-0.3C186.1,144.3,186.1,144.5,186.2,144.5L186.2,144.5z"/>
		</g>
	</g>
	<g class="st2">
		<g>
			<path d="M227.9,144c7.3,2.6,14.6,5.3,21.7,8.3c0.1,0.1,0.2-0.2,0.1-0.2c-7.2-2.9-14.4-5.7-21.7-8.3
				C227.8,143.7,227.7,144,227.9,144L227.9,144z"/>
		</g>
	</g>
	<g class="st2">
		<g>
			<path d="M258.3,221.6c-0.8,2.1-1.8,4.2-2.8,6.3c-0.3,0.6-0.6,1.2-0.9,1.7c-0.2,0.3-0.8,1.5-1.1,0.7c0-0.2-0.3-0.1-0.2,0.1
				c0.4,1.6,1.8-1.1,2-1.5c1.2-2.3,2.3-4.7,3.2-7.1C258.6,221.5,258.4,221.5,258.3,221.6L258.3,221.6z"/>
		</g>
	</g>
	<g class="st2">
		<g>
			<path d="M257.2,219.8c-3.2,5.9-6.1,12-8.6,18.3c-0.1,0.1,0.2,0.2,0.2,0.1c2.6-6.2,5.4-12.3,8.6-18.2
				C257.5,219.7,257.2,219.6,257.2,219.8L257.2,219.8z"/>
		</g>
	</g>
	<g class="st2">
		<g>
			<path d="M249.4,236.9c-2.1,2.3-4.3,4.6-6.4,6.9c-0.1,0.1,0.1,0.3,0.2,0.2c2.1-2.3,4.3-4.6,6.4-6.9
				C249.7,237,249.5,236.8,249.4,236.9L249.4,236.9z"/>
		</g>
	</g>
	<g class="st2">
		<g>
			<path d="M166,236.2c5.3,4.5,10.1,9.5,14.3,15.1c0.1,0.1,0.3,0,0.2-0.1c-4.2-5.6-9-10.7-14.3-15.2
				C166.1,235.9,165.9,236.1,166,236.2L166,236.2z"/>
		</g>
	</g>
	<g class="st2">
		<g>
			<path d="M167.1,238.5c5,4.6,10.8,8.4,17,11.1c0.1,0.1,0.3-0.2,0.1-0.2c-6.2-2.7-12-6.4-17-11.1
				C167.2,238.2,167,238.4,167.1,238.5L167.1,238.5z"/>
		</g>
	</g>
	<g class="st2">
		<g>
			<path d="M178.8,249.1c7.9,2.5,16.3,3.2,24.6,2.1c0.2,0,0.2-0.3,0-0.3c-8.2,1.1-16.6,0.3-24.5-2.1
				C178.7,248.8,178.7,249,178.8,249.1L178.8,249.1z"/>
		</g>
	</g>
	<g class="st2">
		<g>
			<path d="M194.6,252.2c9.1-0.1,18.3-0.3,27.4-0.4c0.2,0,0.2-0.3,0-0.3c-9.1,0.1-18.3,0.3-27.4,0.4
				C194.4,251.9,194.4,252.2,194.6,252.2L194.6,252.2z"/>
		</g>
	</g>
	<g class="st2">
		<g>
			<path d="M217.9,252c-0.8,0.6-1.5,1.2-2.3,1.8c-0.1,0.1,0,0.2,0.1,0.2c8-1.2,15.9-2.5,23.9-3.7c0.2,0,0.1-0.3-0.1-0.2
				c-8,1.2-15.9,2.5-23.9,3.7c0,0.1,0.1,0.1,0.1,0.2c0.8-0.6,1.5-1.2,2.3-1.8C218.2,252.1,218.1,251.9,217.9,252L217.9,252z"/>
		</g>
	</g>
	<g class="st2">
		<g>
			<path d="M236.2,251c-0.9,0.2-1.8,0.5-2.7,0.7c0,0.1,0,0.2,0.1,0.2c5-1.9,10-3.7,15-5.6c-0.1,0-0.1-0.1-0.2-0.1
				c-0.2,2.1-0.9,4-2.1,5.7c0.1,0,0.1,0.1,0.2,0.1c1.9-4,3.8-7.9,5.7-11.9c0.1-0.1-0.1-0.3-0.2-0.1c-1.9,4-3.8,7.9-5.7,11.9
				c-0.1,0.1,0.1,0.3,0.2,0.1c1.2-1.7,2-3.7,2.1-5.8c0-0.1-0.1-0.1-0.2-0.1c-5,1.9-10,3.7-15,5.6c-0.1,0.1-0.1,0.3,0.1,0.2
				c0.9-0.2,1.8-0.5,2.7-0.7C236.4,251.2,236.3,251,236.2,251L236.2,251z"/>
		</g>
	</g>
	<g class="st2">
		<g>
			<path d="M179.4,236.5c2.2-7,4.3-14,6.5-21.1c0-0.2-0.2-0.2-0.2-0.1c-2.2,7-4.3,14-6.5,21.1C179.1,236.6,179.4,236.7,179.4,236.5
				L179.4,236.5z"/>
		</g>
	</g>
	<g class="st2">
		<g>
			<path d="M177.7,236.5c1.1-9.5,3.7-18.8,7.4-27.5c0.1-0.1-0.2-0.3-0.2-0.1c-3.8,8.8-6.3,18.1-7.5,27.6
				C177.4,236.7,177.7,236.7,177.7,236.5L177.7,236.5z"/>
		</g>
	</g>
	<g class="st2">
		<g>
			<path d="M180.7,240.5c1-8.6,2.1-17.5,5.7-25.4c1-2.2,2.2-4.3,3.6-6.2c0.1-0.1-0.1-0.3-0.2-0.1c-5.2,7.1-7.3,15.8-8.5,24.4
				c-0.3,2.4-0.6,4.9-0.9,7.3C180.4,240.6,180.6,240.6,180.7,240.5L180.7,240.5z"/>
		</g>
	</g>
	<g class="st2">
		<g>
			<path d="M186.9,243.8c0.5,0.7-0.2,1.4-0.8,1.6c-0.8,0.2-1.4-0.3-1.9-0.9c-0.8-1.1-1-2.5-1.4-3.8c-0.7-2.8-1.2-5.7-1.4-8.5
				c-0.4-5.6,0.3-11.3,1.9-16.7c0.9-3.1,2.2-6.1,3.7-8.9c0.1-0.1-0.1-0.3-0.2-0.1c-3.1,5.7-5,12-5.6,18.4c-0.3,3.2-0.3,6.5,0.1,9.7
				c0.2,1.6,0.4,3.2,0.8,4.7c0.3,1.5,0.7,3,1.3,4.5c0.4,1,1.3,2.3,2.6,1.9c0.8-0.3,1.6-1.3,0.9-2.1
				C186.9,243.5,186.8,243.6,186.9,243.8L186.9,243.8z"/>
		</g>
	</g>
	<g class="st2">
		<g>
			<path d="M179.6,230.6c0.1-10.5,3.3-20.9,9.1-29.7c0.8-1.3,1.7-2.5,2.7-3.7c0.4-0.5,1.2-1.2,1.8-0.6c0.5,0.4,0.6,1.2,0.1,1.7
				c-0.1,0.1,0.1,0.3,0.2,0.2c0.6-0.5,0.5-1.4,0-1.9c-0.6-0.7-1.5-0.4-2,0.2c-0.9,1-1.7,2.2-2.5,3.3c-0.9,1.3-1.7,2.5-2.4,3.9
				c-2.9,5.2-5,10.9-6.2,16.8c-0.6,3.3-1,6.6-1,9.9C179.3,230.8,179.6,230.8,179.6,230.6L179.6,230.6z"/>
		</g>
	</g>
	<g class="st2">
		<g>
			<path d="M182.5,210.9c2.9-3.9,4.1-8.8,6.6-12.9c2.2-3.8,5.6-7.2,10.3-7.1c2.2,0.1,4.4,1,5.7,2.9c0.1,0.1,0.3,0,0.2-0.1
				c-2.1-3.3-6.8-3.7-10.1-2.2c-4.5,2.1-6.8,6.9-8.6,11.2c-1.2,2.8-2.4,5.6-4.2,8.1C182.2,210.9,182.5,211,182.5,210.9L182.5,210.9z
				"/>
		</g>
	</g>
	<g class="st2">
		<g>
			<path d="M197.5,195.1c4.4-0.1,8.8,0.8,12.8,2.5c0.1,0.1,0.3-0.2,0.1-0.2c-4.1-1.8-8.5-2.7-12.9-2.6
				C197.4,194.9,197.4,195.1,197.5,195.1L197.5,195.1z"/>
		</g>
	</g>
	<g class="st2">
		<g>
			<path d="M196.7,194.7c3.8-1.9,7.9-3.1,12.1-3.5c2-0.2,4.1-0.2,6.1,0c1,0.1,2,0.1,3,0.5c0.8,0.3,2.1,1.1,1.5,2.1
				c-0.1,0.1,0.1,0.3,0.2,0.1c0.6-1.1-0.5-2-1.4-2.4c-0.7-0.3-1.4-0.4-2.1-0.5c-0.9-0.1-1.9-0.2-2.8-0.2c-3.7-0.1-7.3,0.3-10.9,1.4
				c-2,0.6-4,1.4-5.8,2.3C196.4,194.5,196.6,194.8,196.7,194.7L196.7,194.7z"/>
		</g>
	</g>
	<g class="st2">
		<g>
			<path d="M199.1,191.5c2.9-2.5,6.4-4.2,10.2-4.9c3.8-0.8,8.2-0.7,11.4,1.8c1.6,1.3,2.7,3.1,2.9,5.1c0,0.2,0.3,0.2,0.3,0
				c-0.3-3.8-3.6-6.4-7.1-7.2c-3.9-0.9-8.3-0.1-11.9,1.5c-2.1,0.9-4.1,2.1-5.9,3.6C198.8,191.4,199,191.6,199.1,191.5L199.1,191.5z"
				/>
		</g>
	</g>
	<g class="st2">
		<g>
			<path d="M215.4,191.6c4.6,6,9.2,12.1,13.7,18.1c0.1,0.1,0.3,0,0.2-0.1c-4.6-6-9.2-12.1-13.7-18.1
				C215.6,191.3,215.3,191.5,215.4,191.6L215.4,191.6z"/>
		</g>
	</g>
	<g class="st2">
		<g>
			<path d="M222.9,199.4c4.5,6.7,9,13.5,13.5,20.2c0.1,0.1,0.3,0,0.2-0.1c-4.5-6.7-9-13.5-13.5-20.2
				C223,199.1,222.8,199.2,222.9,199.4L222.9,199.4z"/>
		</g>
	</g>
	<g class="st2">
		<g>
			<path d="M229.2,205.7c4.1,8.9,8.2,17.9,12.4,26.8c0.1,0.1,0.3,0,0.2-0.1c-1.1-3.2-2.2-6.4-3.3-9.6c-0.1-0.2-0.3-0.1-0.2,0.1
				c1.2,5.9,3.1,11.6,5.7,17c0,0.1,0.2,0.1,0.2,0c0.6-2.2,0.1-4.5-1.3-6.3c-0.1-0.1-0.2,0-0.2,0.1c1.2,5.1,3,10,5.4,14.6
				c0.1,0.1,0.3,0,0.2-0.1c-2.4-4.6-4.2-9.5-5.4-14.6c-0.1,0-0.1,0.1-0.2,0.1c1.4,1.7,1.9,4,1.3,6.1c0.1,0,0.2,0,0.2,0
				c-2.5-5.4-4.4-11.1-5.6-16.9c-0.1,0-0.2,0-0.2,0.1c1.1,3.2,2.2,6.4,3.3,9.6c0.1,0,0.2-0.1,0.2-0.1c-4.1-8.9-8.2-17.9-12.4-26.8
				C229.4,205.5,229.2,205.6,229.2,205.7L229.2,205.7z"/>
		</g>
	</g>
	<g class="st2">
		<g>
			<path d="M168.8,235c-2.7-10.7-4.4-21.7-4.9-32.8c-0.1-3.1-0.2-6.2-0.2-9.3c0-0.2-0.2-0.2-0.3,0c-0.1,11.1,0.9,22.1,3,33
				c0.6,3.1,1.3,6.2,2.1,9.2C168.6,235.2,168.8,235.2,168.8,235L168.8,235z"/>
		</g>
	</g>
	<g class="st2">
		<g>
			<path d="M163.3,227.7c-2.8-14.5-5.1-29-6.7-43.7c-0.5-4.1-0.9-8.1-1.3-12.2c0-0.2-0.3-0.2-0.3,0c1.3,14.6,3.2,29.2,5.7,43.6
				c0.7,4.1,1.5,8.2,2.3,12.3C163.1,227.9,163.3,227.8,163.3,227.7L163.3,227.7z"/>
		</g>
	</g>
	<g class="st2">
		<g>
			<path d="M161.9,216.9c-1.2-8.4-2.2-16.9-3-25.4c-0.8-8.4-1.4-16.8-1.9-25.3c-0.2-4.1-0.4-8.5,1.9-12c0.1-0.1-0.1-0.3-0.2-0.1
				c-1.9,3-2.1,6.6-2,10.1c0.1,4.2,0.4,8.4,0.7,12.7c0.6,8.6,1.4,17.2,2.4,25.8c0.6,4.8,1.2,9.5,1.8,14.3
				C161.6,217.1,161.9,217,161.9,216.9L161.9,216.9z"/>
		</g>
	</g>
	<g class="st2">
		<g>
			<path d="M151.2,187c1.3-11.1,2.6-22.5,8.3-32.3c1.5-2.5,3.2-4.9,5.2-7c0.1-0.1-0.1-0.3-0.2-0.2c-7.6,8-10.7,19-12.3,29.7
				c-0.5,3.3-0.9,6.6-1.3,9.9C150.9,187.2,151.1,187.2,151.2,187L151.2,187z"/>
		</g>
	</g>
	<g class="st2">
		<g>
			<path d="M155.1,162.7c4.4-6.6,9.9-12.5,16.1-17.4c1.8-1.4,3.7-2.8,5.6-4c0.1-0.1,0-0.3-0.1-0.2c-6.7,4.4-12.7,9.8-17.7,16.1
				c-1.4,1.8-2.8,3.6-4,5.5C154.8,162.7,155,162.8,155.1,162.7L155.1,162.7z"/>
		</g>
	</g>
	<g class="st2">
		<g>
			<path d="M159,153.4c7.3-7.9,14.9-16.1,24.9-20.4c1.5-0.6,3.2-1.4,4.8-1.3c0.9,0.1,1.6,0.4,2.1,1.2c0.4,0.6,0.5,1.4,0,2
				c-0.1,0.1,0.1,0.3,0.2,0.1c0.6-0.8,0.4-1.8-0.2-2.5c-0.8-1-2-1.2-3.2-1c-1.4,0.2-2.8,0.8-4.2,1.4c-1.3,0.6-2.6,1.2-3.9,2
				c-5.1,2.9-9.6,6.8-13.8,11c-2.4,2.4-4.7,4.9-7,7.4C158.7,153.3,158.9,153.5,159,153.4L159,153.4z"/>
		</g>
	</g>
	<g class="st2">
		<g>
			<path d="M177,138.6c7.8-3.1,16.1-4.9,24.5-5.4c0.2,0,0.2-0.3,0-0.3c-8.4,0.5-16.7,2.3-24.5,5.4
				C176.8,138.4,176.8,138.7,177,138.6L177,138.6z"/>
		</g>
	</g>
	<g class="st2">
		<g>
			<path d="M202.9,137c10.2,2.4,20.2,5.5,30,9c2.8,1,5.5,2.1,8.3,3.1c0.1,0.1,0.2-0.2,0.1-0.2c-9.7-3.9-19.6-7.2-29.7-9.9
				c-2.8-0.8-5.7-1.5-8.6-2.2C202.8,136.7,202.8,136.9,202.9,137L202.9,137z"/>
		</g>
	</g>
	<g class="st2">
		<g>
			<path d="M226.9,142.3c7.2,0.2,14.4,1.5,21.3,3.8c0.2,0.1,0.2-0.2,0.1-0.2c-6.9-2.4-14.1-3.7-21.3-3.9
				C226.8,142,226.8,142.2,226.9,142.3L226.9,142.3z"/>
		</g>
	</g>
	<g class="st2">
		<g>
			<path d="M245.6,139.9c0.9,0.5,1.8,1,2.7,1.5c0.1,0.1,0.3-0.1,0.1-0.2c-0.9-0.5-1.8-1-2.7-1.5
				C245.5,139.7,245.4,139.9,245.6,139.9L245.6,139.9z"/>
		</g>
	</g>
	<g class="st2">
		<g>
			<path d="M256.5,211.7c-0.2,1.4-0.5,2.7-0.7,4.1c0.1,0,0.2,0,0.2,0c0-0.9-0.1-1.9-0.1-2.8c0-0.2-0.3-0.2-0.3,0
				c0,0.9,0.1,1.9,0.1,2.8c0,0.1,0.2,0.2,0.2,0c0.3-1.4,0.5-2.7,0.7-4.1C256.8,211.7,256.6,211.6,256.5,211.7L256.5,211.7z"/>
		</g>
	</g>
	<g class="st2">
		<g>
			<path d="M257.9,221.5c-0.8,5.1-1.9,10.1-3.3,15.1c0,0.2,0.2,0.2,0.2,0.1c1.4-5,2.4-10,3.3-15.1
				C258.2,221.4,258,221.3,257.9,221.5L257.9,221.5z"/>
		</g>
	</g>
	<g class="st2">
		<g>
			<path d="M148.3,182.6c-2.2,8.2-4.4,16.5-6.5,24.7c-0.6,2.4-1.3,4.7-1.9,7.1c0,0.2,0.2,0.2,0.2,0.1c2.2-8.2,4.4-16.5,6.5-24.7
				c0.6-2.4,1.3-4.7,1.9-7.1C148.6,182.5,148.4,182.4,148.3,182.6L148.3,182.6z"/>
		</g>
	</g>
	<g class="st2">
		<g>
			<path d="M151.8,187c-3.5,8.5-7,16.9-10.5,25.4c-1,2.4-2,4.8-3,7.2c-0.1,0.1,0.2,0.2,0.2,0.1c3.5-8.5,7-16.9,10.5-25.4
				c1-2.4,2-4.8,3-7.2C152.1,186.9,151.8,186.8,151.8,187L151.8,187z"/>
		</g>
	</g>
	<g class="st2">
		<g>
			<path d="M168.7,246.8c-0.5-3.9-0.7-7.8-0.4-11.7c0-0.2-0.2-0.2-0.3,0c-0.3,3.9-0.1,7.9,0.4,11.8C168.5,247,168.7,247,168.7,246.8
				L168.7,246.8z"/>
		</g>
	</g>
	<g class="st2">
		<g>
			<path d="M171.1,249.1c0.3-3.2,0.6-6.3,0.7-9.5c-0.1,0-0.2,0-0.3,0c-0.1,2.8-0.5,5.5-1.3,8.1c0,0.2,0.2,0.2,0.2,0.1
				c0.8-2.7,1.3-5.4,1.3-8.2c0-0.2-0.2-0.2-0.3,0c-0.1,3.2-0.4,6.4-0.7,9.5C170.8,249.3,171,249.3,171.1,249.1L171.1,249.1z"/>
		</g>
	</g>
	<g class="st2">
		<g>
			<path d="M172.1,251.6c0.6-1.6,1-3.3,1-5.1c0-0.1-0.2-0.2-0.2-0.1c-0.7,1-1.2,2-1.7,3.1c-0.1,0.1,0.2,0.2,0.2,0.1
				c0.4-1.1,1-2.1,1.6-3.1c-0.1,0-0.2,0-0.2-0.1c0,1.7-0.3,3.4-1,5C171.8,251.7,172.1,251.8,172.1,251.6L172.1,251.6z"/>
		</g>
	</g>
	<g class="st2">
		<g>
			<path d="M253.8,219.9c1,5.1,2,10.1,3,15.2c0,0.2,0.3,0.1,0.2-0.1c-1-5.1-2-10.1-3-15.2C254,219.7,253.7,219.7,253.8,219.9
				L253.8,219.9z"/>
		</g>
	</g>
	<g class="st2">
		<g>
			<path d="M253.3,200.3c2.9,12.6,4.7,25.5,7.2,38.2c0.7,3.6,1.5,7.1,2.4,10.7c0,0.1,0.2,0.1,0.2,0c1.4-4.8,1.1-9.9-0.9-14.5
				c0-0.1-0.2-0.1-0.2,0c-0.3,1.2-0.3,2.5-0.3,3.8c-0.1,2,0,3.9,0.2,5.9c0.2,2,0.4,3.9,1,5.8c0.4,1.3,0.9,2.8,2,3.6
				c1.2,0.9,2.7,0.3,3.7-0.6c0.1-0.1-0.1-0.3-0.2-0.2c-0.9,0.8-2.2,1.5-3.3,0.6c-1.1-0.8-1.6-2.4-1.9-3.6c-1-3.6-1.2-7.4-1.1-11.1
				c0-1.4,0-2.8,0.3-4.1c-0.1,0-0.2,0-0.2,0c1.9,4.5,2.2,9.6,0.9,14.3c0.1,0,0.2,0,0.2,0c-3.1-12.7-5-25.6-7.4-38.4
				c-0.7-3.5-1.4-7-2.2-10.5C253.5,200.1,253.2,200.1,253.3,200.3L253.3,200.3z"/>
		</g>
	</g>
	<g class="st2">
		<g>
			<path d="M288.6,237.6c1.2-4.3,2.1-8.7,2.7-13.2c0-0.1-0.2-0.2-0.2,0c-0.4,1.2-0.8,2.4-1.2,3.6c0.1,0,0.2,0,0.2,0
				c-0.3-8.6-2.1-17-4.5-25.2c-0.7-2.4-1.4-4.7-2.2-7c0-0.2-0.3-0.1-0.2,0.1c2.6,8.1,5,16.4,6.1,24.9c0.3,2.4,0.5,4.8,0.6,7.2
				c0,0.1,0.2,0.2,0.2,0c0.4-1.2,0.8-2.4,1.2-3.6c-0.1,0-0.2,0-0.2,0c-0.5,4.4-1.4,8.8-2.6,13.1
				C288.3,237.7,288.5,237.8,288.6,237.6L288.6,237.6z"/>
		</g>
	</g>
	<g class="st2">
		<g>
			<path d="M164.3,225.2c-0.2-0.4-0.4-0.9-0.6-1.3c-0.1,0-0.1,0.1-0.2,0.1c3.4,6.4,7.6,12.4,12.5,17.8c1.4,1.6,2.9,3.1,4.4,4.5
				c0.1,0.1,0.3-0.1,0.2-0.2c-6.8-6.5-12.5-14-16.9-22.3c-0.1-0.1-0.3,0-0.2,0.1c0.2,0.4,0.4,0.9,0.6,1.3
				C164.2,225.5,164.4,225.3,164.3,225.2L164.3,225.2z"/>
		</g>
	</g>
	<g class="st2">
		<g>
			<path d="M175.8,240.2c2.9,2,5.8,3.9,8.7,5.9c2.2,1.5,4.7,3.3,5.1,6.1c0,0.2,0.3,0.1,0.2-0.1c-0.4-2.7-2.6-4.5-4.7-5.9
				c-3-2.1-6.1-4.1-9.2-6.2C175.8,239.9,175.7,240.2,175.8,240.2L175.8,240.2z"/>
		</g>
	</g>
	<g class="st2">
		<g>
			<path d="M178.9,260.2c0.2,0,0.2-0.3,0-0.3C178.7,259.9,178.7,260.2,178.9,260.2L178.9,260.2z"/>
		</g>
	</g>
	<g class="st2">
		<g>
			<path d="M180.5,258.6c-1,10-2.2,20-3.6,30c-1.3,10-2.8,20.1-4.4,30.1c-0.9,5.6-1.9,11.2-2.9,16.8c0,0.2,0.2,0.2,0.2,0.1
				c1.8-10,3.4-20,4.9-30c1.5-10,2.8-19.9,4-29.9c0.7-5.6,1.3-11.3,1.9-17C180.7,258.5,180.5,258.5,180.5,258.6L180.5,258.6z"/>
		</g>
	</g>
	<g class="st2">
		<g>
			<path d="M175.7,286c-1.2,14-2.6,28.1-4,42.1c-1.5,14-3,28-4.7,42c-1,7.9-2,15.8-3,23.7c0,0.2,0.2,0.2,0.3,0c1.8-14,3.5-28,5.1-42
				c1.6-14,3.1-28,4.4-42.1c0.8-7.9,1.5-15.9,2.2-23.8C176,285.9,175.8,285.9,175.7,286L175.7,286z"/>
		</g>
	</g>
	<g class="st2">
		<g>
			<path d="M168.5,361c-0.1,7.2,0.2,14.4,0.9,21.6c0,0.2,0.3,0.2,0.3,0c-0.7-7.2-1-14.4-0.9-21.6C168.7,360.9,168.5,360.9,168.5,361
				L168.5,361z"/>
		</g>
	</g>
	<g class="st2">
		<g>
			<path d="M164.7,353.7c0.8,13.7,2.1,27.4,4.1,41c0.6,3.9,1.2,7.7,1.8,11.5c0,0.2,0.3,0.1,0.2-0.1c-2.3-13.6-4-27.2-5.1-41
				c-0.3-3.8-0.6-7.7-0.8-11.5C164.9,353.5,164.7,353.5,164.7,353.7L164.7,353.7z"/>
		</g>
	</g>
	<g class="st2">
		<g>
			<path d="M241.6,249.6c5.7,10.4,11.4,20.8,17,31.2c5.6,10.4,11.1,20.9,16.5,31.5c3,5.9,6.1,11.8,9.1,17.7c0.1,0.1,0.3,0,0.2-0.1
				c-5.4-10.6-10.8-21.1-16.3-31.6c-5.5-10.5-11.1-20.9-16.7-31.3c-3.2-5.8-6.4-11.7-9.6-17.5C241.8,249.3,241.5,249.4,241.6,249.6
				L241.6,249.6z"/>
		</g>
	</g>
	<g class="st2">
		<g>
			<path d="M257.1,275.8c6.4,11.9,12.1,24.2,17.2,36.7c5,12.4,9.4,25,13.2,37.9c2.1,7.2,4,14.5,5.7,21.9c0,0.2,0.3,0.1,0.2-0.1
				c-3-13.1-6.7-26.1-11.1-38.8c-4.3-12.7-9.3-25.2-14.9-37.4c-3.2-6.9-6.5-13.7-10.1-20.3C257.3,275.6,257.1,275.7,257.1,275.8
				L257.1,275.8z"/>
		</g>
	</g>
	<g class="st2">
		<g>
			<path d="M272.9,320.9c2.9,9.6,5.5,19.3,7.7,29.1c2.2,9.8,4.1,19.8,5.6,29.8c0.8,5.7,1.6,11.4,2.2,17.1c0,0.2,0.3,0.2,0.3,0
				c-1.1-10-2.5-20-4.3-29.9c-1.8-10-4-19.9-6.5-29.7c-1.4-5.5-3-11-4.6-16.5C273.1,320.7,272.9,320.7,272.9,320.9L272.9,320.9z"/>
		</g>
	</g>
	<g class="st2">
		<g>
			<path d="M177.2,257.6c-1.2,10.8-2.2,21.6-2.9,32.5c-0.7,10.8-1.1,21.7-1.3,32.6c-0.1,6.1-0.1,12.2,0,18.3c0,0.2,0.3,0.2,0.3,0
				c-0.1-10.9,0-21.7,0.4-32.6c0.4-10.9,1.1-21.7,2-32.5c0.5-6.1,1.1-12.2,1.8-18.2C177.4,257.4,177.2,257.4,177.2,257.6
				L177.2,257.6z"/>
		</g>
	</g>
	<g class="st2">
		<g>
			<path d="M174.1,281.6c-1.4,9.1-2.7,18.3-3.6,27.4c-0.9,9.2-1.2,18.5-0.5,27.8c0.3,4.1,0.6,8.7,3.5,12c0.1,0.1,0.3-0.1,0.2-0.2
				c-2.6-3-3-7.2-3.3-11c-0.4-4.5-0.5-9-0.4-13.5c0.1-9,1-18,2.2-27c0.7-5.1,1.4-10.2,2.2-15.4C174.3,281.5,174.1,281.5,174.1,281.6
				L174.1,281.6z"/>
		</g>
	</g>
	<g class="st2">
		<g>
			<path d="M173,337c1.7,8.4,3.8,16.7,6.4,24.9c0.7,2.3,1.5,4.7,2.2,7c0.1,0.2,0.3,0.1,0.2-0.1c-2.7-8.1-5.1-16.4-7-24.7
				c-0.6-2.4-1.1-4.8-1.6-7.2C173.2,336.8,172.9,336.9,173,337L173,337z"/>
		</g>
	</g>
	<g class="st2">
		<g>
			<path d="M178.8,357.6c1.9,6.7,4.4,13.3,7.4,19.6c0.1,0.1,0.3,0,0.2-0.1c-3-6.3-5.5-12.8-7.4-19.6
				C179,357.4,178.7,357.5,178.8,357.6L178.8,357.6z"/>
		</g>
	</g>
	<g class="st2">
		<g>
			<path d="M201.9,216c-1.1-0.5-2.5-0.1-3.2,1c0,0,0,0.1,0,0.2c4.6,5.3,12.3,7.3,18.9,4.9c0.1,0,0.1-0.1,0.1-0.2
				c-0.2-0.8-0.8-1.3-1.6-1.5c-0.2,0-0.2,0.2-0.1,0.2c0.7,0.2,1.2,0.6,1.4,1.3c0-0.1,0.1-0.1,0.1-0.2c-3.6,1.3-7.6,1.3-11.3,0.1
				c-1.8-0.6-3.6-1.5-5.1-2.7c-0.7-0.5-1.5-1.1-2-1.9c-0.2-0.3-0.1-0.4,0.2-0.6c0.2-0.2,0.5-0.4,0.8-0.5c0.5-0.2,1.1-0.2,1.7,0.1
				C202,216.2,202.1,216,201.9,216L201.9,216z"/>
		</g>
	</g>
	<g class="st2">
		<g>
			<path d="M204.7,218.9c1,3.7,5.5,4.8,8.8,3.7c2.1-0.7,3.9-2.1,5.6-3.6c1.5-1.4,3.2-3,3.1-5.2c-0.2-1.9-1.5-3.7-2.8-5.1
				c-1.3-1.3-2.8-2.3-4.4-3c-3.2-1.4-6.9-1.6-10.3-0.5c-3.5,1.2-7.2,4.5-6.1,8.6c1.1,4,5.4,7.1,9.4,7.7c3.8,0.6,7.9-1.1,10-4.4
				c1.9-3.1,1.5-7.4-1-10c-1.4-1.5-3.3-2.2-5.4-2.4c-2.2-0.2-4.8,0.1-6.7,1.2c-3,1.8-3.8,5.9-2.5,8.9c1.5,3.6,5.7,5.4,9.4,5.1
				c3.9-0.2,7.8-2.6,9.3-6.3c0.7-1.8,0.8-4-0.6-5.5c-1.3-1.3-3.2-1.8-5-2c-4.4-0.5-9.5-0.6-13.2,2.3c-1.5,1.2-2.8,2.8-3.2,4.8
				c-0.4,1.8,0.1,3.7,1.2,5.2c2.3,3.1,6.4,4,9.7,2c1.6-1,2.8-2.5,3.4-4.3c0.6-1.7,0.7-4-0.8-5.2c-0.8-0.7-1.9-0.9-2.9-1.1
				c-1.2-0.3-2.5-0.4-3.7-0.5c-1.3-0.1-2.6,0-3.8,0.1c-1.1,0.1-2.3,0.3-3.4,0.7c-3.7,1.5-3.1,6.3-0.6,8.6c1.6,1.5,3.6,2.2,5.6,2.9
				c2.3,0.7,4.7,1.4,7.1,0.9c1.8-0.4,3.5-1.4,4.3-3.2c0.1-0.1-0.2-0.3-0.2-0.1c-0.8,1.9-2.7,2.9-4.7,3.1c-2.2,0.3-4.5-0.4-6.6-1
				c-3.4-1.1-7.6-3.1-7.4-7.3c0.1-2.1,1.5-3.4,3.4-3.9c2.2-0.5,4.5-0.6,6.8-0.5c1.1,0.1,2.3,0.3,3.4,0.5c1.1,0.3,2.2,0.6,2.9,1.5
				c1.2,1.6,0.7,4-0.2,5.6c-1.8,3.2-5.8,5.2-9.3,3.5c-3.5-1.6-5.2-5.7-3.5-9.2c1.9-3.8,6.2-5.2,10.2-5.4c2.1-0.1,4.2,0,6.2,0.3
				c1.7,0.3,3.6,0.9,4.5,2.5c1,1.9,0.3,4.3-0.8,6c-1,1.6-2.5,2.8-4.2,3.6c-3.3,1.6-7.4,1.4-10.5-0.7c-2.9-2-4.1-5.8-2.7-9.1
				c0.7-1.7,2.2-2.9,4-3.5c2-0.6,4.4-0.7,6.4-0.3c3.7,0.8,6,4.3,5.9,8c-0.1,3.7-3,6.8-6.5,7.8c-3.8,1.2-7.9-0.2-10.7-2.8
				c-1.5-1.4-2.9-3.3-3.1-5.5c-0.2-2.1,1-4,2.6-5.3c5.1-4.3,13.2-3.2,17.8,1.2c1.3,1.3,2.6,3,2.9,4.9c0.3,2.2-1.4,3.9-3,5.3
				c-2.8,2.5-6.6,5-10.6,3.5c-1.6-0.6-2.9-1.8-3.3-3.5C204.9,218.7,204.7,218.8,204.7,218.9L204.7,218.9z"/>
		</g>
	</g>
	<g class="st2">
		<g>
			<path d="M172,175.8c3.1,0.4,6.2,0.8,9.3,1.2c0.2,0,0.2-0.2,0-0.3c-3.1-0.4-6.2-0.8-9.3-1.2C171.9,175.5,171.9,175.8,172,175.8
				L172,175.8z"/>
		</g>
	</g>
	<g class="st2">
		<g>
			<path d="M178.2,241.1c-5.5-11.2-8.7-23.6-9.4-36.1c-0.2-3.5-0.2-7.1,0.1-10.6c0-0.2-0.2-0.2-0.3,0c-0.8,12.6,1,25.3,5.2,37.1
				c1.2,3.3,2.6,6.5,4.1,9.7C178,241.3,178.2,241.2,178.2,241.1L178.2,241.1z"/>
		</g>
	</g>
	<g class="st2">
		<g>
			<path d="M174.7,240.3c-4.1-7.9-7.2-16.3-9.3-25c-2.1-8.7-3.1-17.6-3-26.5c0.1-5.1,0.5-10.1,1.2-15.1c0-0.2-0.2-0.2-0.2-0.1
				c-1.4,8.9-1.6,17.9-0.7,26.8c0.9,8.9,2.8,17.7,5.8,26.2c1.7,4.7,3.7,9.3,6,13.7C174.6,240.6,174.8,240.5,174.7,240.3L174.7,240.3
				z"/>
		</g>
	</g>
	<g class="st2">
		<g>
			<path d="M163.2,222.8c-1.6-8.6-3.3-17.2-4-25.9c-0.6-8.1-0.5-16.3,1.3-24.3c1-4.4,2.4-8.7,4.4-12.8c0.1-0.1-0.1-0.3-0.2-0.1
				c-3.5,7.1-5.3,15-5.9,22.9c-0.6,8.5,0.2,17.1,1.5,25.5c0.8,4.9,1.7,9.8,2.6,14.7C163,223,163.2,223,163.2,222.8L163.2,222.8z"/>
		</g>
	</g>
	<g class="st2">
		<g>
			<path d="M160.1,186.6c2.1-11.4,4.2-23.2,10-33.4c1.6-2.9,3.5-5.6,5.7-8.1c0.1-0.1-0.1-0.3-0.2-0.2c-7.8,8.9-11.4,20.4-13.8,31.8
				c-0.7,3.3-1.3,6.6-1.9,9.8C159.8,186.7,160.1,186.8,160.1,186.6L160.1,186.6z"/>
		</g>
	</g>
	<g class="st2">
		<g>
			<path d="M161.6,164.7c5.1-6.7,10.4-13.6,18.2-17.2c2.1-1,4.3-1.6,6.5-2c0.2,0,0.1-0.3-0.1-0.2c-8.4,1.2-15.1,7.1-20.3,13.5
				c-1.6,1.9-3.1,3.9-4.6,5.9C161.3,164.7,161.5,164.9,161.6,164.7L161.6,164.7z"/>
		</g>
	</g>
	<g class="st2">
		<g>
			<path d="M162.9,155.4c6.9-7.4,14.4-15.4,24.5-18.3c1.5-0.4,3.1-0.9,4.6-0.7c1.6,0.1,3.5,1.5,2.7,3.3c-0.1,0.1,0.2,0.3,0.2,0.1
				c0.4-1,0.1-2-0.6-2.7c-0.9-0.9-2.2-1.1-3.4-1c-2.7,0.2-5.4,1.2-7.9,2.3c-5.1,2.3-9.5,5.9-13.6,9.8c-2.4,2.3-4.6,4.6-6.8,7
				C162.6,155.3,162.8,155.5,162.9,155.4L162.9,155.4z"/>
		</g>
	</g>
	<g class="st2">
		<g>
			<path d="M177.1,144.1c4.9-2.4,9.9-4.9,15.3-5.7c5.8-0.9,11.5,0.6,17.1,2.1c3.1,0.8,6.3,1.7,9.4,2.8c0.2,0,0.2-0.2,0.1-0.2
				c-5.6-1.8-11.4-3.5-17.3-4.6c-2.8-0.5-5.6-0.7-8.4-0.4c-2.7,0.3-5.2,1.1-7.7,2c-2.9,1.1-5.7,2.5-8.5,3.9
				C176.8,143.9,176.9,144.2,177.1,144.1L177.1,144.1z"/>
		</g>
	</g>
	<g class="st2">
		<g>
			<path d="M195.6,139.3c11.3-2.5,23.4-3.5,34.5,0.4c2.9,1,5.7,2.4,8.3,4.1c0.1,0.1,0.3-0.1,0.1-0.2c-9.7-6.4-21.6-7.6-32.9-6.3
				c-3.4,0.4-6.8,1-10.1,1.7C195.4,139,195.4,139.3,195.6,139.3L195.6,139.3z"/>
		</g>
	</g>
	<g class="st2">
		<g>
			<path d="M209.8,135.9c10.9,0.3,23.1,0.8,31.1,9.2c1.9,2,3.4,4.4,4.3,7.1c0,0.2,0.3,0.1,0.2-0.1c-1.5-4.7-4.9-8.4-9-11
				c-4.8-3-10.3-4.4-15.9-5c-3.6-0.4-7.1-0.5-10.7-0.6C209.6,135.6,209.6,135.9,209.8,135.9L209.8,135.9z"/>
		</g>
	</g>
	<g class="st2">
		<g>
			<path d="M239.1,136.1c3,3.2,6,6.6,8.8,10c0.1,0.1,0.3-0.1,0.2-0.2c-2.8-3.4-5.7-6.8-8.8-10C239.2,135.8,239,136,239.1,136.1
				L239.1,136.1z"/>
		</g>
	</g>
	<g class="st2">
		<g>
			<path d="M255,175.4c0,3.4-0.2,6.7-0.8,10.1c0,0.2,0.2,0.2,0.2,0.1c0.6-3.3,0.8-6.7,0.8-10.1C255.2,175.3,255,175.3,255,175.4
				L255,175.4z"/>
		</g>
	</g>
	<g class="st2">
		<g>
			<path d="M257.9,220.8c-1.6,4.2-3.3,8.4-5.1,12.6c0.1,0,0.2,0,0.2,0.1c-0.1-2.1,0-4.2,0.4-6.2c0-0.2-0.2-0.2-0.2-0.1
				c-0.4,2.1-0.6,4.2-0.4,6.3c0,0.1,0.2,0.2,0.2,0.1c1.8-4.2,3.5-8.4,5.1-12.6C258.1,220.7,257.9,220.7,257.9,220.8L257.9,220.8z"/>
		</g>
	</g>
	<g class="st2">
		<g>
			<path d="M254.8,221.8c-3.7,8.3-7.5,16.6-11.2,24.9c-0.1,0.1,0.1,0.3,0.2,0.1c3.4-6.6,6.7-13.2,10.1-19.8c-0.1,0-0.2,0-0.2-0.1
				c0.1,5.7-4,10.2-7.6,14.2c0.1,0,0.1,0.1,0.2,0.1c1.5-4.3,3.5-8.4,6.1-12.2c-0.1,0-0.1-0.1-0.2-0.1c-3.7,5.9-7.7,11.6-11.8,17.2
				c0.1,0,0.1,0.1,0.2,0.1c1.2-2.6,2.8-5.1,4.6-7.3c0.1-0.1-0.1-0.3-0.2-0.2c-1.8,2.3-3.4,4.7-4.6,7.4c-0.1,0.1,0.1,0.3,0.2,0.1
				c4.1-5.6,8.1-11.4,11.8-17.2c0.1-0.1-0.1-0.3-0.2-0.1c-2.6,3.8-4.6,7.9-6.1,12.3c0,0.1,0.1,0.2,0.2,0.1c3.7-4,7.7-8.6,7.6-14.3
				c0-0.1-0.2-0.2-0.2-0.1c-3.4,6.6-6.7,13.2-10.1,19.8c0.1,0,0.1,0.1,0.2,0.1c3.7-8.3,7.5-16.6,11.2-24.9
				C255.1,221.7,254.8,221.6,254.8,221.8L254.8,221.8z"/>
		</g>
	</g>
	<g class="st2">
		<g>
			<path d="M249.9,233c-3.5,3.3-6.5,7.1-9,11.2c-0.1,0.1,0.1,0.3,0.2,0.1c2.4-4.1,5.4-7.9,8.9-11.2C250.2,233.1,250,232.9,249.9,233
				L249.9,233z"/>
		</g>
	</g>
	<g class="st2">
		<g>
			<path d="M185.2,231.2c0.2,0.8,0.3,1.6,0.5,2.5c0,0.2,0.3,0.1,0.2-0.1c-0.2-0.8-0.3-1.6-0.5-2.5
				C185.4,230.9,185.1,231,185.2,231.2L185.2,231.2z"/>
		</g>
	</g>
	<g class="st2">
		<g>
			<path d="M184.9,231.1c-0.7-0.4-0.7,0.8-0.5,1.2c0.3,0.6,1,1,1.5,1.5c0.6,0.5,1.2,1,1.8,1.4c2.7,1.8,5.7,3.1,8.9,3.8
				c0.1,0,0.2-0.2,0.1-0.2c-4.7-2.1-9-5.1-12.7-8.7c-0.1,0.1-0.1,0.1-0.2,0.2c5.6,3.3,12.3,3.8,18.7,4.2c0-0.1,0-0.2,0-0.3
				c-2.2-0.1-4.4-0.2-6.6-0.3c-1.1,0-2.2-0.1-3.4-0.1c-1,0-2.1,0-3.1-0.3c-2-0.7-2.5-2.9-2.9-4.7c-0.5-2.1-0.7-4.2-0.7-6.3
				c0-2.4,0.3-4.8,0.9-7.2c-0.1,0-0.2,0-0.2,0c-0.1,5.2,0.6,10.4,2.3,15.4c0.1,0.2,0.3,0.1,0.2-0.1c-1.7-5.8-2.6-11.8-2.7-17.8
				c-0.1,0-0.2,0-0.2,0c1.5,7.9,2.9,15.9,4.4,23.8c0.1,0,0.2,0,0.2-0.1c-2.3-9.2-2.8-18.7-1.6-28.1c0.3-2.7,0.8-5.4,1.5-8.1
				c0-0.2-0.2-0.2-0.2-0.1c-2.2,9.2-2.7,18.8-1.4,28.2c0.4,2.7,0.9,5.4,1.5,8.1c0,0.2,0.3,0.1,0.2-0.1c-1.5-7.9-2.9-15.9-4.4-23.8
				c0-0.1-0.2-0.1-0.2,0c0.1,6,1,12.1,2.7,17.9c0.1,0,0.2,0,0.2-0.1c-1.6-4.9-2.4-10.1-2.3-15.3c0-0.1-0.2-0.2-0.2,0
				c-1.1,4.3-1.2,8.8-0.2,13.2c0.3,1.6,0.7,3.8,2.2,4.8c0.7,0.5,1.5,0.7,2.3,0.7c1.1,0.1,2.3,0.1,3.4,0.2c2.8,0.1,5.5,0.2,8.3,0.3
				c0.2,0,0.2-0.2,0-0.3c-6.3-0.3-13-0.8-18.5-4.1c-0.1-0.1-0.3,0.1-0.2,0.2c3.7,3.6,8,6.6,12.8,8.8c0-0.1,0.1-0.2,0.1-0.2
				c-2.5-0.5-4.8-1.4-7-2.6c-1.1-0.6-2.2-1.3-3.2-2.1c-0.5-0.4-0.9-0.7-1.3-1.1c-0.2-0.2-0.5-0.4-0.6-0.7c0,0-0.3-1.1,0.1-0.9
				C184.9,231.4,185,231.1,184.9,231.1L184.9,231.1z"/>
		</g>
	</g>
	<g class="st2">
		<g>
			<path d="M187.6,223.7c-1.5-8.6-1-17.5,1.6-25.9c0.6-1.9,1.5-4,3.3-5c0.1-0.1,0-0.3-0.1-0.2c-1.5,0.8-2.4,2.3-3,3.8
				c-0.8,2-1.3,4.1-1.8,6.2c-1,4.5-1.4,9-1.2,13.6c0.1,2.5,0.4,5.1,0.8,7.6C187.4,223.9,187.6,223.9,187.6,223.7L187.6,223.7z"/>
		</g>
	</g>
	<g class="st2">
		<g>
			<path d="M184,222.4c1.4-10.2,3.4-20.9,10.2-29c1.7-2.1,3.8-3.9,6-5.3c-0.1,0-0.1,0-0.2-0.1c0.3,1.3,0,2.6-0.9,3.6
				c-0.1,0.1,0.1,0.3,0.2,0.2c0.9-1.1,1.3-2.5,1-3.9c0-0.1-0.1-0.1-0.2-0.1c-8.6,5.5-12.7,15.4-14.8,25c-0.7,3.1-1.1,6.3-1.6,9.5
				C183.7,222.4,183.9,222.5,184,222.4L184,222.4z"/>
		</g>
	</g>
	<g class="st2">
		<g>
			<path d="M183,212.1c4.3-7.6,10.2-14.4,17.1-19.8c2-1.5,4-3,6.2-4.3c-0.1-0.1-0.1-0.1-0.2-0.2c-0.6,1-1.1,2.1-1.7,3.1
				c-0.1,0.1,0.1,0.3,0.2,0.1c0.6-1,1.1-2.1,1.7-3.1c0.1-0.1-0.1-0.2-0.2-0.2c-7.5,4.6-14.1,10.7-19.3,17.8c-1.5,2-2.8,4.2-4.1,6.4
				C182.7,212.1,182.9,212.3,183,212.1L183,212.1z"/>
		</g>
	</g>
	<g class="st2">
		<g>
			<path d="M193.1,197.3c5.5-5.4,12.8-8.9,20.5-9.9c1-0.1,2.2-0.3,3.2-0.1c0.6,0.1,1.2,0.5,1.3,1.1c0.1,0.5-0.1,1.1-0.6,1.3
				c-0.2,0-0.1,0.3,0.1,0.2c0.6-0.1,0.9-0.7,0.9-1.3c0-0.6-0.4-1.1-1-1.4c-1-0.4-2.1-0.2-3.1-0.1c-1,0.1-2.1,0.3-3.1,0.5
				c-4.4,0.8-8.6,2.5-12.4,4.9c-2.1,1.3-4.1,2.9-5.9,4.6C192.8,197.2,193,197.4,193.1,197.3L193.1,197.3z"/>
		</g>
	</g>
	<g class="st2">
		<g>
			<path d="M210,186.3c2.1-1.9,5-3.3,7.9-2.4c1.2,0.4,2.4,1.2,3.1,2.3c0.9,1.4,0.8,3,0.4,4.6c0,0.2,0.2,0.2,0.2,0.1
				c0.4-1.5,0.5-3.1-0.3-4.5c-0.7-1.2-1.8-2-3-2.5c-3-1.2-6.3,0.2-8.5,2.3C209.7,186.2,209.9,186.4,210,186.3L210,186.3z"/>
		</g>
	</g>
	<g class="st2">
		<g>
			<path d="M215.7,184c5,1.3,9.2,4.9,11.4,9.6c0.1-0.1,0.1-0.1,0.2-0.2c-2.2-1.1-3.9-2.8-5-5c-0.1-0.1-0.3,0-0.2,0.1
				c1.1,2.2,2.9,4,5.1,5.1c0.1,0.1,0.2-0.1,0.2-0.2c-2.2-4.8-6.5-8.4-11.5-9.7C215.6,183.7,215.5,183.9,215.7,184L215.7,184z"/>
		</g>
	</g>
	<g class="st2">
		<g>
			<path d="M222,186.6c2.5,3.7,5,7.5,7.5,11.2c0.1,0.1,0.3,0,0.2-0.1c-2.5-3.7-5-7.5-7.5-11.2C222.1,186.3,221.9,186.4,222,186.6
				L222,186.6z"/>
		</g>
	</g>
	<g class="st2">
		<g>
			<path d="M224.8,192.5c3.1,4.3,6.1,8.7,8.9,13.2c0.1,0.1,0.3,0,0.2-0.1c-2.8-4.5-5.8-8.9-8.9-13.2
				C224.9,192.3,224.7,192.4,224.8,192.5L224.8,192.5z"/>
		</g>
	</g>
	<g class="st2">
		<g>
			<path d="M223.3,187.6c3.6,7.2,6.2,14.9,7.6,22.8c0.4,2.3,0.7,4.6,0.9,7c0,0.2,0.3,0.2,0.3,0c-0.8-8.1-2.7-16.1-5.8-23.6
				c-0.9-2.1-1.8-4.2-2.9-6.2C223.4,187.4,223.2,187.5,223.3,187.6L223.3,187.6z"/>
		</g>
	</g>
	<g class="st2">
		<g>
			<path d="M230.2,203.2c0.5,6.9,1.7,13.7,3.5,20.4c0,0.1,0.2,0.1,0.2,0c0.1-2.3-0.1-4.7-0.5-7c0-0.1-0.2-0.1-0.2,0
				c0,2.6,0,5.1,0,7.7c0,0.2,0.3,0.2,0.3,0c0-2.6,0-5.1,0-7.7c-0.1,0-0.2,0-0.2,0c0.4,2.3,0.6,4.6,0.5,6.9c0.1,0,0.2,0,0.2,0
				c-1.8-6.6-3-13.4-3.5-20.3C230.5,203,230.2,203,230.2,203.2L230.2,203.2z"/>
		</g>
	</g>
	<g class="st2">
		<g>
			<path d="M233.7,224.7c-2.2,5.7-6.4,10.6-11.8,13.6c-0.1,0.1,0,0.3,0.1,0.2c5.4-3,9.7-7.9,11.9-13.7
				C234,224.7,233.8,224.6,233.7,224.7L233.7,224.7z"/>
		</g>
	</g>
	<g class="st2">
		<g>
			<path d="M190.6,232.3c9.3,3.2,19.2,4.3,29,3.2c0.2,0,0.2-0.3,0-0.3c-9.7,1.1-19.6,0-28.9-3.2C190.5,232,190.5,232.2,190.6,232.3
				L190.6,232.3z"/>
		</g>
	</g>
	<g class="st2">
		<g>
			<path d="M206.4,237.1c7.5,0.2,16.2,0.3,21.7-5.7c0.1-0.1,0-0.2-0.1-0.2c-4.5,1.1-8.5,3.7-11.3,7.3c-0.1,0.1,0,0.2,0.1,0.2
				c6.8,0.3,13.4-4.3,15.5-10.8c0-0.1,0-0.2-0.1-0.2c-1.6,0-3,1.2-3.3,2.8c0,0.2,0.2,0.2,0.2,0.1c0.2-1.5,1.5-2.6,3-2.7
				c0-0.1-0.1-0.1-0.1-0.2c-2.1,6.4-8.6,10.8-15.2,10.6c0,0.1,0.1,0.1,0.1,0.2c2.8-3.6,6.8-6.2,11.2-7.3c0-0.1-0.1-0.1-0.1-0.2
				c-5.4,6-14.1,5.9-21.5,5.7C206.2,236.8,206.2,237.1,206.4,237.1L206.4,237.1z"/>
		</g>
	</g>
	<g class="st2">
		<g>
			<path d="M227.1,235.2c1.8-4,3.6-8.1,5.4-12.1c-0.1,0-0.2-0.1-0.2-0.1c-0.5,2.3-1.3,4.5-2.5,6.6c0.1,0,0.2,0.1,0.2,0.1
				c2-5.4,3.4-11.1,4.1-16.9c0-0.1-0.2-0.2-0.2,0c-0.5,2.3-1.1,4.7-1.6,7c0.1,0,0.2,0,0.2,0c0.2-6.7-0.6-13.4-2.3-19.8
				c0-0.1-0.2-0.1-0.2,0c-0.6,4.4-0.2,8.8,1.2,13c0,0.1,0.2,0.1,0.2,0c0.4-6.4-2.1-12.4-5.4-17.7c-3-4.8-6.7-9.9-12.1-12.1
				c-5.2-2.1-11-0.7-15.4,2.5c-4.8,3.5-7.6,8.9-9.1,14.5c-2,7.4-2.3,15.3-1.4,22.9c0,0.2,0.3,0.2,0.3,0c-0.8-6.6-0.6-13.4,0.7-19.9
				c1.2-5.7,3.4-11.5,7.7-15.5c3.9-3.7,9.7-6,15.1-4.8c5.7,1.3,9.6,6.2,12.8,10.8c3.9,5.7,7,12.4,6.6,19.4c0.1,0,0.2,0,0.2,0
				c-1.4-4.1-1.8-8.5-1.2-12.9c-0.1,0-0.2,0-0.2,0c1.8,6.4,2.6,13.1,2.3,19.8c0,0.1,0.2,0.2,0.2,0c0.5-2.3,1.1-4.7,1.6-7
				c-0.1,0-0.2,0-0.2,0c-0.7,5.8-2,11.4-4.1,16.8c-0.1,0.1,0.2,0.2,0.2,0.1c1.2-2.1,2-4.3,2.5-6.6c0-0.1-0.2-0.2-0.2-0.1
				c-1.8,4-3.6,8.1-5.4,12.1C226.8,235.2,227.1,235.3,227.1,235.2L227.1,235.2z"/>
		</g>
	</g>
	<g class="st2">
		<g>
			<path d="M187.1,212c-0.4,4.3-0.8,8.7-1,13c-0.1,2.6-0.7,6.6,2,8.2c0.1,0.1,0.3-0.1,0.1-0.2c-1.4-0.8-1.8-2.3-1.9-3.8
				c-0.1-1.7,0-3.4,0.1-5.1c0.2-4,0.5-8,0.9-12C187.4,211.9,187.1,211.9,187.1,212L187.1,212z"/>
		</g>
	</g>
	<g class="st2">
		<g>
			<path d="M187.2,227.2c-0.8,2.6-0.7,5.4,0.3,7.9c0.1,0.1,0.3,0.1,0.2-0.1c-1-2.5-1.1-5.2-0.3-7.8
				C187.5,227.1,187.2,227.1,187.2,227.2L187.2,227.2z"/>
		</g>
	</g>
	<g class="st2">
		<g>
			<path d="M182.9,238c-1.8,3.4-1.9,7.6-0.1,11c0.1,0.1,0.3,0,0.2-0.1c-1.8-3.4-1.7-7.5,0.1-10.8C183.2,238,183,237.9,182.9,238
				L182.9,238z"/>
		</g>
	</g>
	<g class="st2">
		<g>
			<path d="M181.8,242.9c-1.3,2.9-2.2,6.4-0.9,9.4c1,2.4,3.5,4.3,6.2,3.9c0.1,0,0.1-0.1,0.1-0.2c-0.8-0.8-1.9-1.1-3-0.9
				c-0.1,0-0.1,0.1-0.1,0.2c0.2,1.3,0.9,2.5,1.9,3.4c0.1,0.1,0.3-0.1,0.2-0.2c-2-2.1-3.5-4.7-4.5-7.5c-0.5-1.3-0.8-2.6-1-4
				c-0.1-0.6-0.7-4.8,0.6-4.4c0.2,0,0.2-0.2,0.1-0.2c-2.2-0.6-0.6,6.6-0.3,7.5c0.9,3.3,2.6,6.3,4.9,8.7c0.1-0.1,0.1-0.1,0.2-0.2
				c-1-0.8-1.6-2-1.8-3.2c0,0.1-0.1,0.1-0.1,0.2c1-0.2,2,0.1,2.7,0.8c0-0.1,0-0.1,0.1-0.2c-2.7,0.4-5.2-1.7-6.1-4.1
				c-1.1-2.9-0.2-6.1,1-8.8C182.1,242.8,181.9,242.7,181.8,242.9L181.8,242.9z"/>
		</g>
	</g>
	<g class="st2">
		<g>
			<path d="M186.5,249.9c0.6,0.8,1.1,1.5,1.7,2.3c0.1,0.1,0.3,0,0.2-0.1c-1.3-2.4-2.4-4.9-3.1-7.5c-0.7-2.6-1.4-5.5-0.7-8.2
				c0.3-1.2,1-2.3,1.9-3.2c0.4-0.4,1-0.7,1.5-0.9c0.3-0.1,0.6-0.2,0.9-0.2c0.3,0,0.5-0.1,0.5,0.3c0.1,1.2-0.9,2.5-1.6,3.4
				c-0.8,1-1.6,1.9-2.2,3c-2.2,3.6-2.8,8.8,0.7,11.8c0.6,0.5,1.4,1,2.2,1.1c0.6,0.1,1.4-0.1,1.6-0.7c0.3-0.9-0.7-1.6-1.2-2.2
				c-0.8-0.9-1.6-2-2.2-3.1c-1.3-2.4-2-5.1-1.2-7.8c0.7-2.3,2.4-4.4,4.9-4.9c0.2,0,0.1-0.3-0.1-0.2c-3.1,0.7-4.7,3.9-4.7,6.9
				c0,3.9,2.8,7.3,5.3,10c0.1,0.1,0.3-0.1,0.2-0.2c-2.4-2.7-5.1-5.8-5.3-9.5c-0.1-2.9,1.4-6.3,4.5-7c0-0.1,0-0.2-0.1-0.2
				c-2.5,0.6-4.3,2.7-5,5.1c-0.9,2.9,0,5.9,1.5,8.4c0.4,0.6,0.8,1.2,1.2,1.7c0.5,0.7,1.2,1.3,1.7,2c0.8,1-0.2,1.6-1.2,1.4
				c-0.7-0.1-1.4-0.6-2-1.1c-2.5-2.3-2.9-5.9-1.8-9c0.7-1.9,1.9-3.5,3.1-5.1c1-1.2,1.9-2.6,1.9-4.2c0-0.1-0.1-0.1-0.1-0.1
				c-1.7-0.1-3.2,0.8-4.2,2.1c-1.2,1.6-1.5,3.8-1.3,5.7c0.4,4.3,2,8.7,4.1,12.5c0.1,0,0.1-0.1,0.2-0.1c-0.6-0.8-1.1-1.5-1.7-2.3
				C186.6,249.7,186.4,249.8,186.5,249.9L186.5,249.9z"/>
		</g>
	</g>
	<g class="st2">
		<g>
			<path d="M232,229.9c2.5,2.6,4.4,5.9,5.3,9.5c0.2,0.9,0.4,1.8,0.5,2.7c0,0.4,0,0.8-0.2,1.2c-0.4,0.7-1.3,0.3-1.8,0
				c-1.5-1.1-2.6-2.8-3-4.6c0-0.2-0.3-0.1-0.2,0.1c0.5,2,0.7,4.1,0.7,6.2c0,0.1,0.2,0.2,0.2,0c0.5-2.5,0.9-5,1.4-7.5
				c-0.1,0-0.2,0-0.2,0c0.7,3.5,0.8,7,0.2,10.5c0.1,0,0.2,0,0.2,0c-0.6-2.4-0.1-4.9,1.4-6.9c-0.1,0-0.2,0-0.2,0
				c0.5,3.9-0.6,7.9-3.2,10.8c-0.1,0.1,0.1,0.3,0.2,0.2c2.6-3,3.8-7.1,3.3-11.1c0-0.1-0.2-0.1-0.2,0c-1.5,2-2,4.7-1.4,7.1
				c0,0.1,0.2,0.1,0.2,0c0.5-3.5,0.5-7.1-0.2-10.7c0-0.1-0.2-0.1-0.2,0c-0.5,2.5-0.9,5-1.4,7.5c0.1,0,0.2,0,0.2,0
				c0.1-2.1-0.2-4.2-0.7-6.3c-0.1,0-0.2,0-0.2,0.1c0.4,1.5,1.2,2.9,2.3,4c0.7,0.7,2.3,2,3,0.6c0.3-0.5,0.2-1.2,0.1-1.8
				c-0.1-0.8-0.3-1.6-0.5-2.4c-0.4-1.6-1-3.2-1.8-4.7c-0.9-1.7-2.1-3.3-3.4-4.7C232.1,229.6,231.9,229.8,232,229.9L232,229.9z"/>
		</g>
	</g>
	<g class="st1">
		<g>
			<path d="M48.6,46.4c-1.9,15.6-2.8,31.3-2.9,47c0,4.4,0,8.9,0.2,13.3c0,0.2,0.3,0.2,0.3,0c-0.4-15.7,0-31.4,1.4-47.1
				c0.4-4.4,0.8-8.8,1.4-13.3C48.9,46.2,48.7,46.2,48.6,46.4L48.6,46.4z"/>
		</g>
	</g>
	<g class="st1">
		<g>
			<path d="M37.9,57.1c-1.3,8.1-2.4,16.2-3.4,24.3c-1,8.2-1.9,16.4-2.6,24.6c-0.4,4.7-0.7,9.3-1,14c0,0.2,0.2,0.2,0.3,0
				c1.1-16.5,2.7-32.9,5-49.2c0.6-4.6,1.3-9.1,2-13.7C38.1,57,37.9,57,37.9,57.1L37.9,57.1z"/>
		</g>
	</g>
	<g class="st1">
		<g>
			<path class="st3" d="M-8.6,65c-1.2,16.3-1.6,32.6-1.3,48.9c0.1,4.6,0.2,9.1,0.4,13.7c0,0.2,0.3,0.2,0.3,0
				c-0.7-16.3-0.7-32.6,0.1-48.9C-8.9,74-8.7,69.5-8.3,65C-8.3,64.8-8.6,64.8-8.6,65L-8.6,65z"/>
		</g>
	</g>
	<g class="st2">
		<g>
			<path class="st3" d="M189,232c-0.5,1-1,1.9-1.5,2.9c-0.1,0.1,0.1,0.3,0.2,0.1c0.5-1,1-1.9,1.5-2.9C189.3,232,189.1,231.9,189,232
				L189,232z"/>
		</g>
	</g>
	<g class="st2">
		<g>
			<path class="st3" d="M173.3,260.9c-2.5,8.2-4.5,16.5-6.2,24.8c-0.5,2.4-0.9,4.8-1.3,7.1c0,0.2,0.2,0.2,0.2,0.1
				c1.4-8.4,3.2-16.8,5.4-25c0.6-2.3,1.3-4.7,2-7C173.5,260.8,173.3,260.7,173.3,260.9L173.3,260.9z"/>
		</g>
	</g>
	<g class="st2">
		<g>
			<path class="st3" d="M186.3,234.4c-3-0.4-4.7,2.9-5.6,5.2c-0.6,1.3-1,2.7-1.5,4.1c-0.8,2.3-1.8,4.7-2.6,7c-1,3-2,5.9-3,8.9
				c0,0.2,0.2,0.2,0.2,0.1c1.6-5,3.3-9.9,5.1-14.8c1-2.7,1.7-5.6,3.4-8c0.9-1.3,2.2-2.4,3.9-2.2
				C186.5,234.7,186.5,234.4,186.3,234.4L186.3,234.4z"/>
		</g>
	</g>
	<g class="st2">
		<g>
			<path class="st3" d="M171.4,263.8c-2.3,8.2-4,16.5-5,25c-1,8.5-1.2,17.1-0.5,25.6c0.7,8.5,2.3,16.8,5,24.9
				c2.4,7.1,5.5,14.1,9.6,20.4c1.2,1.9,2.6,3.8,4,5.6c1.4,1.7,3,3.5,5,4.4c1.6,0.7,3.1,0.2,3.9-1.4c0.8-1.5,1.2-3.4,1.4-5.1
				c0.3-2,0.5-4.1,0.4-6.2c0-4.2-0.6-8.5-1.4-12.6c-0.8-4.6-2-9.1-3.3-13.6c-2.7-9.2-6.1-18.2-8.8-27.4c-2.8-9.5-4.7-19.2-5.8-29
				c-1.1-9.8-1.5-19.8-1-29.7c0.1-2.4,0.3-4.8,0.5-7.3c0-0.2-0.2-0.2-0.3,0c-0.8,9.7-0.9,19.4-0.2,29.1c0.7,9.6,2.1,19.2,4.3,28.5
				c2.1,9.1,5.3,18,8.2,26.9c2.9,8.6,5.5,17.4,6.8,26.4c0.6,4.2,1,8.6,0.6,12.9c-0.2,2.1-0.6,4.1-1.3,6.1c-0.3,0.9-0.8,2-1.8,2.4
				c-1.8,0.7-3.8-1.2-5-2.3c-1.8-1.7-3.3-3.7-4.7-5.7c-3.8-5.4-6.7-11.3-9.1-17.4c-3.1-7.8-5.1-16-6.2-24.3
				c-1.1-8.3-1.3-16.7-0.7-25c0.6-8.4,2-16.8,4-25c0.5-2,1-4,1.6-6C171.7,263.7,171.5,263.6,171.4,263.8L171.4,263.8z"/>
		</g>
	</g>
	<g class="st2">
		<g>
			<path class="st3" d="M235.8,234c6.2,10.9,11,22.5,14.3,34.5c0.9,3.4,1.8,6.8,2.5,10.2c0,0.2,0.3,0.1,0.2-0.1
				c-2.5-12.2-6.5-24.1-11.9-35.3c-1.5-3.2-3.2-6.4-4.9-9.5C236,233.8,235.8,233.9,235.8,234L235.8,234z"/>
		</g>
	</g>
	<g class="st2">
		<g>
			<path class="st3" d="M243.5,246.9c1.4,9.7,3.5,19.3,6,28.7c1.3,4.7,2.7,9.4,4.2,14c1.5,4.4,3,8.8,4.8,13.1
				c1.8,4.2,4,8.4,7.6,11.5c0,0,0.1,0,0.2,0c0.8-0.4,1.1-1.2,1-2.1c0-0.2-0.3-0.1-0.2,0.1c0.1,0.5,0,1.4-0.6,1.6
				c-0.3,0.1-0.4-0.1-0.6-0.3c-0.2-0.2-0.4-0.4-0.7-0.6c-0.8-0.8-1.5-1.6-2.1-2.5c-1.2-1.7-2.3-3.5-3.2-5.4c-2-4.2-3.6-8.7-5.1-13.1
				c-3.2-9.3-5.9-18.8-8-28.5c-1.2-5.5-2.2-11-3-16.5C243.7,246.6,243.5,246.7,243.5,246.9L243.5,246.9z"/>
		</g>
	</g>
	<g class="st2">
		<g>
			<path class="st3" d="M260.9,297.2c3,9.1,10.6,16.5,19.7,19.3c2.3,0.7,5,1.5,7.2,0.2c1.6-0.9,2.4-2.6,2.7-4.3
				c0.3-2,0.2-4.1-0.3-6.1c-0.5-2.4-1.3-4.7-2.1-7c-3.1-9.4-7.6-18.4-13.1-26.7c-5.5-8.3-12.1-15.9-19.6-22.5
				c-7.5-6.6-15.8-12.2-24.7-16.6c-1.1-0.6-2.3-1.1-3.4-1.6c-0.1-0.1-0.3,0.2-0.1,0.2c8.9,4,17.2,9.2,24.7,15.3
				c7.5,6.1,14.2,13.2,19.9,21c5.7,7.8,10.5,16.4,14.1,25.4c0.9,2.2,1.7,4.5,2.4,6.7c0.7,2.2,1.4,4.4,1.8,6.7c0.3,2,0.4,4.2-0.2,6.1
				c-0.7,2.3-2.6,3.7-5,3.6c-2.5-0.1-5.2-1-7.5-2c-2.1-0.9-4.2-2.1-6.1-3.6c-3.8-2.9-7-6.7-9-11c-0.5-1.1-1-2.2-1.3-3.4
				C261.1,297,260.9,297.1,260.9,297.2L260.9,297.2z"/>
		</g>
	</g>
	<g class="st2">
		<g>
			<path class="st3" d="M238.7,241.4c1.3,1.2,2.3,2.7,2.8,4.4c0,0.2,0.3,0.1,0.2-0.1c-0.5-1.8-1.5-3.3-2.9-4.6
				C238.7,241.2,238.6,241.3,238.7,241.4L238.7,241.4z"/>
		</g>
	</g>
	<g class="st2">
		<g>
			<path class="st3" d="M245,245.3c0.6,14.5,2.7,28.9,6.1,43c1.7,7.1,3.8,14.1,6.2,21.1c1.9,5.5,4,11,7.5,15.7
				c1.6,2.1,3.4,4,5.7,5.5c2.4,1.6,5.4,3,8.3,2.3c2.6-0.7,4.4-2.9,5.5-5.2c1.3-2.8,2-5.9,2.2-8.9c0.9-14.1-7.3-26.3-15.3-37.1
				c-9.1-12.2-18.2-24.4-27.3-36.6c-1.1-1.5-2.3-3.1-3.4-4.6c-0.1-0.1-0.3,0-0.2,0.1c9,12,17.9,24,26.9,36c8,10.8,17.2,22,19,35.8
				c0.4,3.3,0.4,6.7-0.3,10c-0.6,2.9-1.6,5.9-3.6,8.1c-0.9,1-2.1,1.8-3.4,2.1c-1.8,0.5-3.6,0-5.2-0.7c-2.5-1.1-4.7-2.8-6.6-4.8
				c-3.8-4.1-6.2-9.5-8.1-14.7c-2.4-6.6-4.5-13.3-6.3-20.1c-3.6-13.7-5.9-27.7-6.8-41.9c-0.1-1.7-0.2-3.5-0.3-5.2
				C245.3,245.1,245,245.1,245,245.3L245,245.3z"/>
		</g>
	</g>
	<g class="st2">
		<g>
			<path class="st3" d="M170.8,264.3c-3.1,10-5.3,20.2-6.5,30.6c-1.2,10.5-1.4,21.1-0.7,31.6c0.8,10.4,2.5,20.7,5.2,30.8
				c1.2,4.4,2.4,8.8,4,13.1c1.5,4,3.4,8,6.3,11.2c1.8,2,5,4.7,7.6,2.3c2.2-2,2.7-5.6,2.5-8.4c-0.1-1.6-0.5-3.3-1.7-4.5
				c-1.2-1.3-2.9-1-4.3-0.1c-3.2,2.1-2.3,6.2-0.6,9c0.7,1.2,1.7,2.8,3.1,3.4c1.5,0.6,2.5-0.7,3-1.9c0.7-1.6,1.1-3.4,1.2-5.1
				c0.1-1.7,0-3.6-0.9-5.1c-0.7-1.3-2.2-2.4-3.7-2.1c-1.5,0.3-2.6,1.7-3.2,3c-1.2,2.4-0.9,4.9-0.3,7.4c0.4,1.6,1.6,4.9,3.9,3.7
				c1-0.5,1.6-1.5,1.9-2.6c0.4-1.4,0.6-2.9,0.6-4.4c-0.1-2.3-0.7-5.5-3.6-5.4c-2.5,0.1-2.9,3.4-2.9,5.3c0,1.1,0.1,2.2,0.3,3.2
				c0,0.2,0.3,0.1,0.2-0.1c-0.5-2-0.6-4.7,0.3-6.6c0.5-1,1.3-1.7,2.5-1.6c1.4,0.1,2.1,1,2.5,2.3c0.4,1.3,0.5,2.7,0.4,4.1
				c-0.1,1.3-0.3,2.7-0.8,3.9c-0.4,0.9-1.4,2-2.5,1.8c-1-0.1-1.6-1.2-2-2.1c-0.5-1.1-0.8-2.3-1-3.5c-0.2-1-0.3-2.1-0.1-3.1
				c0.3-1.5,1-3.1,2.1-4.2c1.4-1.3,3.1-1.2,4.4,0.1c1.3,1.2,1.6,3.1,1.6,4.8c0,1.7-0.3,3.4-0.8,5c-0.4,1.3-1.4,3.7-3.2,2.8
				c-1.4-0.7-2.4-2.4-3.1-3.7c-0.8-1.5-1.4-3.2-1.3-4.9c0.2-1.9,1.6-3.5,3.5-4c1.9-0.5,3.2,1.1,3.7,2.8c0.5,1.5,0.6,3.1,0.4,4.6
				c-0.2,2.4-1.2,6.1-3.9,6.7c-1.6,0.3-3.2-0.7-4.3-1.7c-1.5-1.3-2.7-2.9-3.8-4.5c-2.2-3.4-3.6-7.2-4.9-11c-1.3-4-2.5-8.1-3.5-12.2
				c-2.3-9.2-3.8-18.5-4.6-28c-0.7-9.4-0.7-18.9,0.2-28.3c0.9-9.4,2.5-18.8,4.9-27.9c0.6-2.2,1.2-4.4,1.9-6.6
				C171.1,264.2,170.9,264.1,170.8,264.3L170.8,264.3z"/>
		</g>
	</g>
	<g class="st2">
		<g>
			<path class="st3" d="M175.2,252c-0.5,1.3-1.1,2.7-1.6,4c-0.1,0.2,0.2,0.2,0.2,0.1c0.5-1.4,1-2.7,1.6-4
				C175.5,251.9,175.3,251.9,175.2,252L175.2,252z"/>
		</g>
	</g>
	<g class="st2">
		<g>
			<path class="st3" d="M188.6,389.5c0.4,4.6,1,9.3,1.8,13.9c0.5,2.9,1,7.1,4.2,8.3c0.1,0,0.2,0,0.2-0.1c-0.5-7.6,1.6-15.8-2.6-22.7
				c-1.5-2.5-3.8-4.6-6.6-5.3c-1.2-0.3-2.8-0.2-3,1.3c-0.1,0.8,0.1,1.6,0.2,2.4c0.1,0.9,0.3,1.9,0.5,2.8c0.8,3.7,2.3,7.2,4.2,10.5
				c0.9,1.5,1.9,3.1,3.1,4.3c0.8,0.8,2.3,1.9,3.5,1.2c1.4-0.7,1.2-2.9,1.3-4.2c0-2-0.1-3.9-0.4-5.9c-0.4-2-0.9-4-1.7-5.8
				c-0.6-1.5-1.3-3-2.4-4.2c-0.9-0.9-2.3-2-3.7-1.8c-0.6,0.1-0.9,0.5-1,1c-0.2,0.9,0.1,2,0.2,3c0.3,2,0.7,4.1,1.3,6
				c0.4,1.5,1,3,2.1,4.1c0.5,0.5,1.1,0.7,1.7,0.9c0.1,0,0.2,0,0.2-0.1c0.3-5-1.1-10.1-3.8-14.3c-0.1-0.1-0.2-0.1-0.2,0.1
				c-0.5,6.1,1.1,12.3,4.4,17.5c0.1,0.1,0.3,0,0.2-0.1c-3.4-5.1-4.9-11.3-4.4-17.4c-0.1,0-0.2,0-0.2,0.1c2.7,4.2,4,9.2,3.8,14.2
				c0.1,0,0.1-0.1,0.2-0.1c-1.5-0.2-2.4-1.5-2.9-2.8c-0.7-1.6-1.1-3.4-1.5-5.1c-0.4-1.8-0.8-3.7-0.7-5.5c0.1-2.5,3.3-0.4,4.2,0.4
				c1.1,1.1,1.8,2.5,2.4,4c0.7,1.6,1.2,3.3,1.5,5c0.4,1.8,0.6,3.5,0.6,5.3c0,0.8,0,1.7,0,2.5c0,0.8,0,1.8-0.5,2.5
				c-1.1,1.6-3.3-0.1-4.1-1.1c-1.1-1.3-2-2.7-2.8-4.1c-1.7-2.8-2.9-5.9-3.8-9.1c-0.4-1.6-0.7-3.3-0.9-5c-0.1-0.8-0.2-1.8,0.7-2.3
				c0.7-0.4,1.7-0.1,2.4,0.1c2.7,0.8,4.8,2.8,6.2,5.2c4,6.8,2,14.9,2.4,22.4c0.1,0,0.1-0.1,0.2-0.1c-3.3-1.3-3.6-5.9-4.1-8.9
				c-0.7-4.3-1.3-8.7-1.6-13.1C188.9,389.3,188.6,389.3,188.6,389.5L188.6,389.5z"/>
		</g>
	</g>
	<g class="st2">
		<g>
			<path d="M135.3,215c0.3-6,1.5-12.1,4.9-17.2c0.1-0.1-0.1-0.3-0.2-0.1c-3.4,5.1-4.6,11.3-4.9,17.3
				C135.1,215.2,135.3,215.2,135.3,215L135.3,215z"/>
		</g>
	</g>
	<g class="st2">
		<g>
			<path d="M146.3,237.7c0.6,0.3,1.3,0.6,2,0.8c0.1,0,0.2-0.2,0.1-0.2c-0.6-0.4-1.2-0.8-1.8-1.2c-0.1-0.1-0.3,0.1-0.1,0.2
				c0.6,0.4,1.2,0.8,1.8,1.2c0-0.1,0.1-0.2,0.1-0.2c-0.7-0.2-1.3-0.5-1.9-0.7C146.3,237.5,146.2,237.7,146.3,237.7L146.3,237.7z"/>
		</g>
	</g>
	<g class="st2">
		<g>
			<path d="M146.5,237.5c0.3,0.2,0.6,0.5,0.9,0.7c0.1,0.1,0.2-0.1,0.2-0.2c-0.5-0.6-1.1-1.2-1.6-1.8c-0.1-0.1-0.3,0.1-0.2,0.2
				c0.6,0.6,1.1,1.2,1.6,1.8c0.1-0.1,0.1-0.1,0.2-0.2c-0.3-0.2-0.6-0.5-0.9-0.7C146.5,237.2,146.3,237.4,146.5,237.5L146.5,237.5z"
				/>
		</g>
	</g>
	<g class="st2">
		<g>
			<path d="M133.6,214.6c1.2-9.1,4.2-17.9,8.7-25.9c-0.1,0-0.1-0.1-0.2-0.1c-4.1,7.4-7.6,15.1-11.2,22.8c0.1,0,0.2,0.1,0.2,0.1
				c2.5-7.8,5.5-15.4,9-22.8c1-2.1,2-4.2,3-6.3c-0.1,0-0.1-0.1-0.2-0.1c-4.2,8.6-8.3,17.1-12.5,25.7c0.1,0,0.1,0.1,0.2,0.1
				c4.3-9.6,8.7-19.2,14.6-27.9c1.7-2.5,3.5-4.9,5.5-7.2c-0.1-0.1-0.1-0.1-0.2-0.2c-5.9,8.1-11.3,16.6-16.1,25.5
				c-1.3,2.5-2.6,5-3.9,7.6c-0.1,0.1,0.1,0.3,0.2,0.1c5.8-10.6,11.7-21.3,17.5-31.9c1.6-3,3.3-6,4.9-9c0.1-0.1-0.1-0.3-0.2-0.1
				c-3.4,5.5-6.7,10.9-10.1,16.4c0.1,0,0.1,0.1,0.2,0.1c3.5-6.6,7-13.2,10.4-19.8c0.1-0.1-0.1-0.3-0.2-0.1
				c-3.8,6.8-7.3,13.8-10.5,21c-1.5,3.4-3,6.8-4.5,10.2c-1.5,3.3-2.9,6.6-4.1,10c-1.3,3.7-2.3,7.6-2.5,11.5c0,0.2,0.2,0.2,0.3,0
				c0.4-7.3,3.4-14.2,6.3-20.8c3-6.8,5.9-13.7,9.2-20.3c1.9-3.9,3.9-7.7,6-11.5c-0.1,0-0.1-0.1-0.2-0.1c-3.5,6.6-7,13.2-10.4,19.8
				c-0.1,0.1,0.1,0.3,0.2,0.1c3.4-5.5,6.7-10.9,10.1-16.4c-0.1,0-0.1-0.1-0.2-0.1c-5.8,10.6-11.7,21.3-17.5,31.9c-1.6,3-3.3,6-4.9,9
				c0.1,0,0.1,0.1,0.2,0.1c4.4-9,9.5-17.7,15.1-26.1c1.6-2.4,3.2-4.7,4.9-7c0.1-0.1-0.1-0.3-0.2-0.2c-6.9,8.1-12,17.4-16.4,27
				c-1.3,2.7-2.5,5.4-3.7,8.2c-0.1,0.1,0.1,0.3,0.2,0.1c4.2-8.6,8.3-17.1,12.5-25.7c0.1-0.1-0.1-0.3-0.2-0.1
				c-3.7,7.3-7,14.8-9.8,22.5c-0.8,2.2-1.6,4.4-2.3,6.6c0,0.1,0.2,0.2,0.2,0.1c3.5-7.7,7.1-15.4,11.2-22.8c0.1-0.1-0.1-0.3-0.2-0.1
				c-4.5,8-7.5,16.9-8.7,26C133.3,214.7,133.6,214.8,133.6,214.6L133.6,214.6z"/>
		</g>
	</g>
	<g class="st2">
		<g>
			<path d="M143.8,232.8c1.4,1.2,3,2.3,4.7,3.2c0.1,0.1,0.3-0.1,0.1-0.2c-1.6-0.9-3.2-2-4.6-3.2
				C143.9,232.5,143.7,232.7,143.8,232.8L143.8,232.8z"/>
		</g>
	</g>
	<g class="st2">
		<g>
			<path d="M148.1,240.2c1.4,0.7,2.8,0.9,4.3,0.9c0.2,0,0.5,0.1,0.7,0c0.3-0.1,0.6-0.8,0.7-1.1c0.3-0.6,0.3-1.3,0.3-2
				c0-0.1-0.1-0.1-0.1-0.1c-0.3,0-0.7,0-1,0c-0.1,0-0.1,0.1-0.1,0.1c0,0.9-0.1,2.8,1,3.1c1.5,0.4,3.1,0.4,4.7-0.1c3-1,5-3.7,6.7-6.3
				c1-1.5,1.9-3.1,2.9-4.7c0,0,0-0.1,0-0.2c-0.1-0.1-0.2-0.2-0.3-0.3c-0.1-0.1-0.2-0.2-0.2-0.2c-0.1-0.1-0.1-0.1-0.2-0.2
				c0.2,0,0.2-0.2,0-0.3c-0.6-0.1,0.3,0.9,0.4,0.9c0.2,0.2,0.2,0.1,0,0.3c-0.1,0.2-0.2,0.4-0.4,0.6c-0.3,0.5-0.6,0.9-0.8,1.4
				c-1.1,1.9-2.3,3.8-3.8,5.5c-1.4,1.6-3.2,3-5.4,3.4c-1.1,0.2-2.3,0.1-3.3-0.2c-0.6-0.2-0.7-0.7-0.8-1.2c0-0.3-0.1-0.6-0.1-0.8
				c0-0.1,0-0.8-0.1-0.7c0.1-0.1,0.5,0,0.6,0c0.1,0,0.2,0,0.3,0c0.1,0,0,0,0,0.2c-0.1,0.4,0,0.8-0.1,1.2c-0.1,0.5-0.4,1.2-0.9,1.3
				c-0.3,0.1-0.8,0-1.2,0c-0.4,0-0.8,0-1.1-0.1c-0.8-0.1-1.5-0.4-2.3-0.8C148.1,239.9,147.9,240.1,148.1,240.2L148.1,240.2z"/>
		</g>
	</g>
	<g class="st2">
		<g>
			<path d="M160.9,236c0-4.5,0-9.1,0-13.6c0-0.2-0.2-0.2-0.3,0c-0.2,3.7-0.9,7.4-2,10.9c0.1,0,0.2,0,0.2,0
				c0.3-8.5,1.9-16.9,4.7-24.9c-0.1,0-0.2,0-0.2,0c0.6,10.2-2.4,20-5.4,29.6c0.1,0,0.2,0,0.2,0c0.4-8.2,2.1-16.3,5.1-24
				c-0.1,0-0.2,0-0.2,0c1.9,6.4-1,12.9-3.7,18.5c0.1,0,0.2,0,0.2,0.1c0.4-7.1,2.6-13.9,6.2-20c-0.1,0-0.1,0-0.2,0
				c0.6,0.7,0.5,1.7,0.3,2.5c-0.2,0.9-0.4,1.7-0.6,2.6c-0.5,1.8-1,3.6-1.6,5.3c-1.2,3.6-2.7,7-4.5,10.4c0.1,0,0.2,0,0.2,0.1
				c0-2.4,0.7-4.8,2.1-6.7c0.1-0.1-0.1-0.3-0.2-0.1c-1.5,2-2.2,4.4-2.2,6.9c0,0.1,0.2,0.2,0.2,0.1c1.8-3.5,3.4-7.1,4.6-10.9
				c0.6-1.9,1.2-3.8,1.7-5.8c0.3-1.4,1-3.2,0-4.4c-0.1-0.1-0.2-0.1-0.2,0c-3.7,6.1-5.9,13-6.3,20.1c0,0.1,0.2,0.2,0.2,0.1
				c2.7-5.7,5.7-12.3,3.8-18.7c0-0.1-0.2-0.1-0.2,0c-3,7.7-4.7,15.8-5.1,24.1c0,0.1,0.2,0.2,0.2,0c3-9.6,6-19.5,5.4-29.6
				c0-0.1-0.2-0.2-0.2,0c-2.8,8-4.4,16.4-4.7,24.9c0,0.1,0.2,0.2,0.2,0c1.2-3.6,1.8-7.2,2-11c-0.1,0-0.2,0-0.3,0c0,4.5,0,9.1,0,13.6
				C160.6,236.2,160.9,236.2,160.9,236L160.9,236z"/>
		</g>
	</g>
	<g class="st2">
		<g>
			<path d="M165.8,228.2c0-1.5,0-2.9,0-4.4c0-0.2-0.3-0.2-0.3,0c0,1.5,0,2.9,0,4.4C165.5,228.4,165.8,228.4,165.8,228.2L165.8,228.2
				z"/>
		</g>
	</g>
	<g class="st2">
		<g>
			<path d="M170.4,235.5c-3-11.7-4.4-23.8-4.1-35.9c0.1-3.4,0.3-6.8,0.6-10.1c0-0.2-0.2-0.2-0.3,0c-1.2,12-0.8,24.1,1.3,36
				c0.6,3.4,1.3,6.7,2.2,10.1C170.2,235.7,170.5,235.6,170.4,235.5L170.4,235.5z"/>
		</g>
	</g>
	<g class="st2">
		<g>
			<path d="M165.4,220.3c-1.1-14.8-1.5-29.6-1-44.5c0.1-4.1,0.3-8.3,0.6-12.4c0-0.2-0.2-0.2-0.3,0c-0.9,14.8-1.1,29.7-0.4,44.5
				c0.2,4.1,0.4,8.3,0.8,12.4C165.1,220.5,165.4,220.5,165.4,220.3L165.4,220.3z"/>
		</g>
	</g>
	<g class="st2">
		<g>
			<path d="M163.5,204.7c-0.1-7.6-0.2-15.3,0.4-22.9c0.5-7.6,1.7-15.2,4.2-22.4c0.7-2,1.5-4,2.4-6c0.4-0.9,0.9-2,1.5-2.8
				c0.7-0.8,2.1-1.4,3-0.5c0.1,0.1,0.3-0.1,0.2-0.2c-1.1-1-2.6-0.4-3.4,0.6c-0.6,0.7-1,1.5-1.3,2.4c-0.4,0.8-0.8,1.7-1.1,2.5
				c-1.5,3.7-2.7,7.6-3.6,11.5c-1.7,7.9-2.3,15.9-2.5,24c-0.1,4.6,0,9.2,0,13.8C163.2,204.8,163.5,204.8,163.5,204.7L163.5,204.7z"
				/>
		</g>
	</g>
	<g class="st2">
		<g>
			<path d="M163.3,172.9c3.9-8.9,5-20.5,14.2-25.9c2.2-1.3,4.7-2,7.3-1.8c0.2,0,0.2-0.2,0-0.3c-4.5-0.4-8.7,2-11.7,5.3
				c-3.5,3.8-5.3,8.7-6.8,13.5c-1,3-1.9,6.1-3.2,9C163,172.9,163.2,173,163.3,172.9L163.3,172.9z"/>
		</g>
	</g>
	<g class="st2">
		<g>
			<path d="M176.5,146.5c6.9-1.9,13.9-2.9,21-3c0.2,0,0.2-0.3,0-0.3c-7.1,0.1-14.2,1.1-21.1,3C176.3,146.3,176.3,146.5,176.5,146.5
				L176.5,146.5z"/>
		</g>
	</g>
	<g class="st2">
		<g>
			<path d="M201,139.5c9.5-0.1,19,1.4,28,4.4c2.6,0.9,5.2,1.9,7.7,3c0.1,0.1,0.3-0.2,0.1-0.2c-8.7-3.9-18.1-6.3-27.6-7.2
				c-2.8-0.2-5.5-0.3-8.3-0.3C200.8,139.3,200.8,139.5,201,139.5L201,139.5z"/>
		</g>
	</g>
	<g class="st2">
		<g>
			<path d="M168.4,160.7c3.2-6.7,7.3-13,12-18.7c1.4-1.6,2.8-3.2,4.3-4.7c-0.1-0.1-0.1-0.1-0.2-0.2c-1.1,2.1-2.3,4.2-3.4,6.3
				c-0.1,0.1,0.1,0.3,0.2,0.1c1.1-2.1,2.3-4.2,3.4-6.3c0.1-0.1-0.1-0.3-0.2-0.2c-5.2,5.3-9.7,11.3-13.3,17.7c-1.1,1.9-2.1,3.8-3,5.7
				C168.1,160.7,168.3,160.8,168.4,160.7L168.4,160.7z"/>
		</g>
	</g>
	<g class="st2">
		<g>
			<path d="M171.8,150.4c6.4-9.5,17-16.1,28.4-17.5c0.7-0.1,1.5-0.2,2.3-0.2c0.4,0,0.8,0.1,1.1,0.3c0.1,0.1,0.2,0.1,0.3,0.2
				c0.3,0.3,0.5,0.5,0.1,0.7c-1.7,0.8-3.9,0.8-5.7,0.4c0,0.1,0,0.2,0,0.2c9-0.1,18,1.1,26.6,3.8c2.4,0.8,4.9,1.6,7.2,2.6
				c0.1,0.1,0.2-0.2,0.1-0.2c-8.4-3.4-17.2-5.5-26.2-6.1c-2.6-0.2-5.1-0.3-7.7-0.2c-0.1,0-0.2,0.2,0,0.2c2.1,0.4,4.3,0.2,6.3-0.6
				c0.1,0,0.1-0.1,0.1-0.1c-0.2-0.9-1.2-1.3-2.1-1.3c-1.2-0.1-2.5,0.2-3.6,0.3c-2.7,0.4-5.3,1.1-7.9,2.1c-5,1.9-9.6,4.8-13.6,8.5
				c-2.2,2.1-4.2,4.4-5.9,6.9C171.5,150.4,171.7,150.5,171.8,150.4L171.8,150.4z"/>
		</g>
	</g>
	<g class="st2">
		<g>
			<path d="M228.1,140.4c-0.4-1,0.8-1.4,1.5-1.3c0.6,0.1,1.1,0.5,1.5,0.8c1.1,0.6,2.1,1.3,3.2,1.9c2,1.2,4.1,2.5,6.1,3.7
				c1.9,1.1,3.8,2.2,5.6,3.5c1.6,1.1,3.2,2.6,3.5,4.6c0,0.2,0.3,0.2,0.3,0c-0.4-3.5-4.2-5.3-6.9-6.9c-4-2.4-7.9-4.8-11.9-7.2
				c-0.7-0.4-1.6-0.9-2.4-0.6c-0.6,0.2-1,0.9-0.8,1.5C227.9,140.6,228.1,140.6,228.1,140.4L228.1,140.4z"/>
		</g>
	</g>
	<g class="st2">
		<g>
			<path d="M247.5,148.8c3.2,5.9,6.5,11.8,9.7,17.7c0.1,0.1,0.3,0,0.2-0.1c-3.2-5.9-6.5-11.8-9.7-17.7
				C247.6,148.5,247.4,148.7,247.5,148.8L247.5,148.8z"/>
		</g>
	</g>
	<g class="st2">
		<g>
			<path d="M255.8,159.1c0.7,8,1.5,15.9,2.2,23.9c0,0.2,0.2,0.2,0.3,0c0-3.7,0-7.4,0.1-11c0-0.2-0.2-0.2-0.3,0
				c-0.9,9.6-1.9,19.2-2.8,28.8c0,0.2,0.2,0.2,0.3,0c0.9-9.6,1.9-19.2,2.8-28.8c-0.1,0-0.2,0-0.3,0c0,3.7,0,7.4-0.1,11
				c0.1,0,0.2,0,0.3,0c-0.7-8-1.5-15.9-2.2-23.9C256.1,158.9,255.8,158.9,255.8,159.1L255.8,159.1z"/>
		</g>
	</g>
	<g class="st2">
		<g>
			<path d="M256.2,190.9c-0.2,5.9-1.3,11.7-3.1,17.2c0,0.2,0.2,0.2,0.2,0.1c1.8-5.6,2.9-11.4,3.1-17.3
				C256.4,190.8,256.2,190.8,256.2,190.9L256.2,190.9z"/>
		</g>
	</g>
	<g class="st2">
		<g>
			<path d="M256.1,199.3c-0.6,8-2.3,16-4.9,23.6c0.1,0,0.2,0,0.2,0c0-1.7,0.4-3.4,1-5c0.1-0.2-0.2-0.2-0.2-0.1
				c-0.6,1.6-0.9,3.3-1,5.1c0,0.1,0.2,0.2,0.2,0c2.6-7.7,4.2-15.6,4.9-23.7C256.4,199.1,256.1,199.1,256.1,199.3L256.1,199.3z"/>
		</g>
	</g>
	<g class="st2">
		<g>
			<path d="M254.8,210c-1.1,4.5-2.3,9.1-3.4,13.6c0.1,0,0.2,0,0.2,0.1c0.1-0.8,0.2-1.6,0.4-2.4c0-0.2-0.2-0.2-0.2-0.1
				c-0.1,0.8-0.2,1.6-0.4,2.4c0,0.2,0.2,0.2,0.2,0.1c1.1-4.5,2.3-9.1,3.4-13.6C255.1,209.9,254.8,209.9,254.8,210L254.8,210z"/>
		</g>
	</g>
	<g class="st2">
		<g>
			<path d="M255.6,209.5c-1.7,6.5-4,12.8-6.9,18.8c-0.1,0.1,0.1,0.3,0.2,0.1c2.9-6.1,5.2-12.4,6.9-18.8
				C255.9,209.4,255.7,209.3,255.6,209.5L255.6,209.5z"/>
		</g>
	</g>
	<g class="st2">
		<g>
			<path d="M252.8,213.9c-2.1,4.7-4.2,9.5-6.4,14.2c-0.1,0.1,0.2,0.3,0.2,0.1c2.1-4.7,4.2-9.5,6.4-14.2
				C253.1,213.9,252.9,213.8,252.8,213.9L252.8,213.9z"/>
		</g>
	</g>
	<g class="st2">
		<g>
			<path d="M161,211.4c5.8,7.5,11.1,15.3,16,23.3c1.4,2.3,2.7,4.6,4,6.9c0.1,0.1,0.3,0,0.2-0.1c-4.7-8.3-9.8-16.3-15.4-24
				c-1.5-2.1-3.1-4.2-4.7-6.3C161,211.1,160.9,211.3,161,211.4L161,211.4z"/>
		</g>
	</g>
	<g class="st2">
		<g>
			<path d="M166.8,223.7c0.2-0.5,0.1-1.2-0.5-1.4c-0.4-0.1-1,0.3-0.9,0.8c0.1,0.3,0.4,0.4,0.6,0.6c0.5,0.4,1.1,0.8,1.6,1.2
				c1.1,0.8,2.1,1.6,3.2,2.4c4.3,3.2,8.5,6.3,12.8,9.5c0.1,0.1,0.3-0.1,0.2-0.2c-4.2-3.5-8.4-7.1-12.6-10.7c-0.1-0.1-0.3,0-0.2,0.2
				c2.8,4.7,6.7,8.6,11.4,11.4c0.1,0.1,0.3-0.1,0.2-0.2c-8.4-6.8-12.8-17.1-15.4-27.4c-0.7-3-1.3-5.9-1.8-9c0-0.1-0.2-0.1-0.2,0
				c-1.1,3.9,0,8,1.4,11.7c1.6,4,3.4,7.9,5.4,11.7c1.9,3.7,4,7.4,6.3,10.8c2.1,3.1,4.6,6,7.8,8.1c3.4,2.2,7.6,3.4,11.7,2.6
				c0.1,0,0.1-0.2,0-0.2c-4.5-0.9-8.9-1.8-13.4-2.7c-0.1,0-0.2,0.1-0.1,0.2c5.6,3.8,12.6,3.6,19.1,2.6c1.9-0.3,3.9-0.7,5.8-1.1
				c0.1,0,0.1-0.3,0-0.2c-5.6,0.5-11.1,1.8-16.3,3.7c-0.1,0-0.1,0.1-0.1,0.2c1.4,3.2,5.9,3.3,8.8,3.5c4.8,0.3,9.7,0.3,14.5,0
				c2.7-0.2,5.4-0.5,8-0.9c0.2,0,0.1-0.3-0.1-0.2c-4.5,0.7-9.1,1.1-13.7,1.2c-2.3,0-4.6,0-6.8-0.1c-2-0.1-4.2-0.2-6.2-0.6
				c-1.8-0.4-3.7-1.1-4.4-2.9c0,0.1,0,0.1-0.1,0.2c5.2-1.9,10.7-3.2,16.2-3.7c0-0.1,0-0.2,0-0.2c-8,1.7-17.4,3.6-24.6-1.4
				c0,0.1-0.1,0.2-0.1,0.2c4.5,0.9,8.9,1.8,13.4,2.7c0-0.1,0-0.2,0-0.2c-3.7,0.8-7.5-0.2-10.7-2.1c-3.3-1.9-5.9-4.8-8.1-7.9
				c-2.3-3.2-4.2-6.6-6.1-10.1c-1.9-3.6-3.7-7.3-5.4-11.1c-1.8-4.2-3.4-8.9-2.2-13.4c-0.1,0-0.2,0-0.2,0
				c1.7,10.5,4.6,21.4,11.2,30.1c1.8,2.4,3.8,4.5,6.1,6.4c0.1-0.1,0.1-0.1,0.2-0.2c-4.6-2.8-8.5-6.7-11.3-11.3
				c-0.1,0.1-0.1,0.1-0.2,0.2c4.1,3.6,8.3,7.2,12.6,10.7c0.1-0.1,0.1-0.1,0.2-0.2c-3.2-2.3-6.3-4.7-9.5-7c-1.6-1.2-3.1-2.3-4.7-3.5
				c-0.8-0.6-1.6-1.2-2.4-1.8c-0.4-0.3-0.8-0.5-1.1-0.8c-0.2-0.1-0.3-0.3-0.3-0.6c0.4-0.3,0.6-0.4,0.8,0c0.2,0.3,0.2,0.6,0.1,0.9
				C166.5,223.8,166.7,223.9,166.8,223.7L166.8,223.7z"/>
		</g>
	</g>
	<g class="st2">
		<g>
			<path d="M220.6,253.2c7,0.2,13.8-3.7,17.1-9.9c0.1-0.1-0.1-0.3-0.2-0.1c-3.3,6.1-10,9.9-16.9,9.7
				C220.4,253,220.4,253.2,220.6,253.2L220.6,253.2z"/>
		</g>
	</g>
	<g class="st2">
		<g>
			<path d="M230.5,252c4.8-2.9,8.9-6.9,11.9-11.7c0.1-0.1-0.1-0.3-0.2-0.1c-3,4.7-7,8.7-11.8,11.6
				C230.3,251.8,230.4,252.1,230.5,252L230.5,252z"/>
		</g>
	</g>
	<g class="st2">
		<g>
			<path d="M238.5,249.7c4-3,8-6.2,11.9-9.4c0.1-0.1-0.1-0.3-0.2-0.2c-3.9,3.2-7.8,6.3-11.8,9.3
				C238.3,249.6,238.4,249.8,238.5,249.7L238.5,249.7z"/>
		</g>
	</g>
	<g class="st2">
		<g>
			<path d="M245.2,248.8c4.2-5.7,7.8-11.7,10.9-18.1c0.1-0.1-0.1-0.3-0.2-0.1c-3.1,6.3-6.7,12.4-10.9,18.1
				C244.8,248.8,245.1,249,245.2,248.8L245.2,248.8z"/>
		</g>
	</g>
	<g class="st2">
		<g>
			<path d="M181.8,182.9c-0.1,1.7-0.5,4.1,0.7,5.6c0.8,1,2.1,1.4,3.3,1.2c3-0.4,3.8-3.9,2.1-6.1c-1.9-2.4-6-1.6-7.1,1.2
				c-0.5,1.4-0.2,3.1,0.7,4.2c1,1.2,2.7,1.8,4.1,0.9c1.4-0.9,2-2.7,1.5-4.2c-0.6-1.7-2.3-2.9-4-3.3c-0.1,0-0.1,0-0.1,0.1
				c-0.6,1.3-0.3,2.9,1.1,3.5c1.1,0.5,2.2-0.1,2.3-1.3c0.1-0.8-0.6-1.9-1.5-1.5c-0.8,0.4-1.2,1.6-0.3,2.1c0.1,0.1,0.3-0.1,0.1-0.2
				c-0.8-0.4-0.1-1.8,0.7-1.7c0.9,0.1,0.9,1.3,0.6,1.9c-0.6,0.9-1.9,0.6-2.5-0.2c-0.3-0.4-0.5-0.9-0.5-1.4c0-0.3,0-0.7,0.2-0.9
				c0.2-0.2,0.4-0.1,0.6,0c1.6,0.5,3.2,2,3.3,3.8c0.1,1.7-1.3,3.5-3,3.5c-2,0-3.3-2.1-3.2-4c0-1.8,1.3-3.3,3.1-3.7
				c1.7-0.4,3.3,0.3,4.2,1.8c0.7,1.3,0.8,3.1-0.3,4.3c-1.1,1.1-3.2,1.2-4.4,0.3c-1.8-1.3-1.2-4.1-1.2-6
				C182.1,182.8,181.8,182.8,181.8,182.9L181.8,182.9z"/>
		</g>
	</g>
	<g class="st2">
		<g>
			<path d="M229.3,183c-1.7,0.4-2.7,2.4-2.2,4c0.5,1.8,2.7,2.6,4.4,2.2c2-0.5,3.2-2.5,3.2-4.5c0-1-0.3-2-1.4-2.3
				c-0.9-0.2-2.1,0-2.9,0.4c-1.6,0.7-2.5,2.8-1.2,4.3c1.5,1.8,4.1-0.4,5.1-1.7c0.6-0.8,0.7-1.9-0.1-2.6c-0.6-0.5-1.5-0.7-2.3-0.6
				c-1.8,0.2-3.3,1.9-2.8,3.7c0.5,2.1,3.2,3.5,4.9,1.9c0.7-0.6,0.9-1.6,0.3-2.4c-0.5-0.6-1.4-0.9-2.1-0.3c0,0,0,0.1,0,0.2
				c0.7,0.9,1.5,1.5,2.6,1.9c0.2,0,0.2-0.2,0.1-0.2c-0.4-0.1-0.8-0.3-1.2-0.6c-0.2-0.1-1.2-0.8-1-1.2c0.2-0.3,1,0,1.1,0.1
				c0.4,0.2,0.7,0.7,0.7,1.2c0,1-1,1.7-2,1.8c-0.9,0.1-1.8-0.3-2.4-0.9c-1.2-1.3-1.2-3.3,0.3-4.3c0.6-0.4,1.3-0.6,2.1-0.6
				c0.9,0.1,2.1,0.7,2,1.7c0,1-1,1.8-1.7,2.3c-0.8,0.6-1.8,1.3-2.8,0.9c-0.7-0.3-1.1-1.1-1.1-1.9c0-0.9,0.4-1.6,1.2-2.1
				c0.7-0.5,1.6-0.7,2.5-0.7c0.5,0,1,0,1.4,0.4c0.5,0.4,0.6,1,0.6,1.6c0.1,1.7-0.8,3.5-2.3,4.2c-1.6,0.8-3.8,0.3-4.6-1.3
				c-0.8-1.6,0.1-3.8,1.8-4.2C229.6,183.2,229.5,183,229.3,183L229.3,183z"/>
		</g>
	</g>
	<g class="st2">
		<g>
			<path d="M169.6,145.5c-5,2.7-7.8,8.2-10.8,12.8c-3.7,5.8-7.3,11.6-10.8,17.5c-2,3.3-3.9,6.6-5.8,10c-0.1,0.1,0.1,0.3,0.2,0.1
				c3.3-5.9,6.8-11.7,10.3-17.4c1.7-2.8,3.5-5.7,5.3-8.5c1.6-2.6,3.2-5.2,4.9-7.8c1.8-2.6,3.9-5.1,6.8-6.6
				C169.9,145.7,169.8,145.4,169.6,145.5L169.6,145.5z"/>
		</g>
	</g>
	<g class="st2">
		<g>
			<path d="M146.2,179c-5,8.9-10,17.8-15.1,26.7c-0.6,1-1.1,2-1.7,3c-0.3,0.5-0.7,0.9-1.2,1.1c-0.5,0.2-1.1,0.1-1.7,0.3
				c-1.4,0.4-1.4,2-1.1,3.2c0.2,0.8,0.6,1.6,1,2.3c0.5,1,1,2,1.5,2.9c1.1,1.9,2.2,3.8,3.5,5.7c2.7,4,5.9,7.8,9.4,11.1
				c0.1,0.1,0.3-0.1,0.2-0.2c-6.1-5.9-11.4-13-14.9-20.7c-0.3-0.8-0.6-1.6-0.6-2.5c0-0.4,0.1-0.8,0.3-1.1c0.4-0.5,1-0.6,1.6-0.6
				c1.9-0.2,2.6-2.2,3.4-3.6c2.4-4.3,4.9-8.6,7.3-12.9c2.7-4.8,5.5-9.7,8.2-14.5C146.5,179,146.3,178.9,146.2,179L146.2,179z"/>
		</g>
	</g>
	<g class="st2">
		<g>
			<path d="M135.4,222.3c0,0-0.1-0.2-0.1-0.3c0,0-0.1,0.1-0.1,0.1c0,0,0.1,0.1,0.1,0.1c0.1,0.3,0.4,0.5,0.5,0.8
				c0.6,0.9,1.1,1.7,1.7,2.6c1.2,1.9,2.4,3.8,3.9,5.6c1.1,1.3,2.4,2.5,4.1,3.1c0.1,0,0.2-0.1,0.1-0.2c-0.8-0.7-1.8-0.8-2.8-1.1
				c-0.1,0-0.2,0-0.2,0.1c0.2,3,1.5,6,4.6,6.8c2.8,0.7,5.8-0.3,8.1-1.8c1.4-0.9,2.7-2.1,3.6-3.5c-0.1,0-0.1,0-0.2,0
				c0.5,0.7,0.9,1.4,1.3,2.1c0.2,0.4,0.4,0.9,0.7,1.2c0.6,0.8,1.6,0.5,2.4,0.2c3.3-1.1,5.8-3.6,8.2-6c1.4-1.3,2.8-2.7,4.3-3.9
				c0.1-0.1-0.1-0.3-0.2-0.2c-2.6,2-4.8,4.4-7.2,6.5c-1.2,1-2.4,2-3.8,2.7c-0.8,0.4-2.6,1.3-3.4,0.6c-0.4-0.3-0.6-0.9-0.8-1.3
				c-0.4-0.7-0.8-1.5-1.3-2.1c-0.1-0.1-0.2-0.1-0.2,0c-1.6,2.3-4.1,4.1-6.8,4.9c-2.5,0.7-5.4,0.7-7.2-1.3c-1.3-1.4-1.7-3.2-1.9-5
				c-0.1,0-0.1,0.1-0.2,0.1c1,0.3,1.8,0.4,2.7,1.1c0-0.1,0.1-0.1,0.1-0.2c-1.8-0.6-3.1-2-4.2-3.4c-0.8-1.1-1.6-2.2-2.4-3.3
				c-1.1-1.7-2.1-3.5-3.3-5.1c-0.3-0.4-0.5-0.3-0.3,0.2C135.2,222.5,135.5,222.4,135.4,222.3L135.4,222.3z"/>
		</g>
	</g>
	<g class="st2">
		<g>
			<path d="M242.2,238.5c1.5,1,2.9-1,3.4-2.2c1-2.4,2-4.8,2.9-7.2c1.9-4.9,3.7-9.8,5.4-14.8c0.9-2.8,1.8-5.7,2.7-8.5
				c0-0.1-0.2-0.2-0.2-0.1c-1.3,2.6-2.3,5.4-2.9,8.3c0,0.2,0.2,0.2,0.2,0.1c0.6-2.8,1.6-5.6,2.9-8.2c-0.1,0-0.2-0.1-0.2-0.1
				c-2.8,9.2-6,18.2-9.6,27.1c-0.5,1.3-1,2.6-1.6,3.8c-0.5,0.9-1.6,2.3-2.8,1.6C242.2,238.2,242,238.4,242.2,238.5L242.2,238.5z"/>
		</g>
	</g>
	<g class="st2">
		<g>
			<path d="M249,231.1c3.8-11.7,6.4-23.8,7.8-36.1c0.4-3.5,0.7-7,0.9-10.4c0-0.1-0.2-0.2-0.2,0c-0.6,3.2-1.1,6.3-1.7,9.5
				c0.1,0,0.2,0,0.2,0c-0.4-8.9-1.2-17.7-2.4-26.6c0-0.1-0.2-0.1-0.2,0c-0.6,1.5-0.2,3.1,0.8,4.3c0.1,0.1,0.2,0,0.2-0.1
				c-0.8-6.4-3.1-12.5-6.8-17.7c-0.1-0.1-0.2-0.1-0.2,0.1c-0.2,4.1,1.6,8.1,4.8,10.7c0.1,0.1,0.3,0,0.2-0.1
				c-2.5-6.3-6.6-11.9-11.9-16.2c-0.1-0.1-0.2,0-0.2,0.1c1,3.8,3.6,7.1,7.1,9c0.1,0.1,0.2-0.1,0.2-0.2c-0.5-1.2-1.1-4.5,1-4.5
				c0.2,0,0.2-0.2,0-0.3c-2.4-0.1-1.8,3.5-1.2,4.8c0.1-0.1,0.1-0.1,0.2-0.2c-3.4-1.9-5.9-5.1-7-8.9c-0.1,0-0.1,0.1-0.2,0.1
				c5.2,4.2,9.3,9.8,11.8,16.1c0.1,0,0.1-0.1,0.2-0.1c-3.1-2.6-4.9-6.5-4.7-10.5c-0.1,0-0.2,0-0.2,0.1c3.7,5.2,6,11.3,6.8,17.6
				c0.1,0,0.1-0.1,0.2-0.1c-1-1.1-1.3-2.6-0.8-4c-0.1,0-0.2,0-0.2,0c1.2,8.8,2,17.6,2.4,26.5c0,0.1,0.2,0.2,0.2,0
				c0.6-3.2,1.1-6.3,1.7-9.5c-0.1,0-0.2,0-0.2,0c-0.8,12.3-2.7,24.5-5.8,36.4c-0.9,3.4-1.9,6.7-2.9,10.1
				C248.7,231.2,249,231.3,249,231.1L249,231.1z"/>
		</g>
	</g>
	<g class="st2">
		<g>
			<path d="M252,155.1c-0.7-0.6-1.4-1.2-2.1-1.6c-0.1-0.1-0.2,0.1-0.2,0.2c4.6,8.1,10.2,15.7,16.4,22.7c1.8,2,3.6,3.9,5.5,5.7
				c0.1,0.1,0.3-0.1,0.2-0.2c-6.7-6.5-12.7-13.7-17.8-21.6c-1.5-2.2-2.8-4.5-4.1-6.8c-0.1,0.1-0.1,0.1-0.2,0.2
				c0.8,0.5,1.4,1,2.1,1.6C252,155.4,252.2,155.2,252,155.1L252,155.1z"/>
		</g>
	</g>
	<g class="st2">
		<g>
			<path d="M253.9,162.5c-0.1-2-1.1-3.8-2.8-4.9c-0.1-0.1-0.3,0.1-0.2,0.2c4.1,3.3,8.3,6.5,12.4,9.8c2,1.6,4.1,3.2,6.1,4.8
				c1,0.8,2,1.6,3,2.4c0.8,0.7,1.6,1.4,1.8,2.6c0.1,0,0.1-0.1,0.2-0.1c-4.1-2.9-8.1-5.9-12.2-8.8c-0.1-0.1-0.3,0.1-0.2,0.2
				c6.3,5.5,12.7,11.1,19,16.6c0.1,0.1,0.3-0.1,0.2-0.2c-6.3-5.5-12.7-11.1-19-16.6c-0.1,0.1-0.1,0.1-0.2,0.2
				c4.1,2.9,8.1,5.9,12.2,8.8c0.1,0.1,0.2,0,0.2-0.1c-0.3-1.6-1.7-2.5-2.9-3.4c-1.7-1.3-3.3-2.6-5-3.9c-3.3-2.6-6.6-5.2-9.9-7.8
				c-1.9-1.5-3.8-3-5.7-4.5c-0.1,0.1-0.1,0.1-0.2,0.2c1.6,1.1,2.5,2.8,2.6,4.7C253.6,162.7,253.9,162.7,253.9,162.5L253.9,162.5z"/>
		</g>
	</g>
	<g class="st2">
		<g>
			<path d="M274.6,179.7c1.4,8,4.5,15.7,9.1,22.4c0.1,0.1,0.2,0,0.2-0.1c-0.5-3.3-1.7-6.4-3.6-9.1c-0.1-0.1-0.2,0-0.2,0.1
				c0.9,6.5,3.2,12.8,6.8,18.4c0,0.1,0.2,0.1,0.2,0c1.5-3.3,1.8-7,0.8-10.5c0-0.1-0.2-0.1-0.2,0c-0.5,6.2,0.5,12.4,3,18.1
				c0,0.1,0.1,0.1,0.2,0c1.1-0.7,1.7-2,1.6-3.4c0-0.5-0.1-1.1-0.6-1.3c-0.5-0.2-1,0.1-1.3,0.5c-0.6,0.8-1,1.6-1.5,2.4
				c-0.6,0.9-1.2,1.8-1.7,2.7c-1.2,1.8-2.3,3.6-3.5,5.5c-0.1,0.1,0.1,0.3,0.2,0.1c1.7-2.7,3.4-5.3,5-8c0.4-0.6,0.8-1.3,1.2-1.9
				c0.2-0.3,0.4-0.7,0.7-1c0.1-0.1,0.2-0.1,0.2-0.2c0.3,0.1,0.5,0.3,0.8,0.4c0,0.1,0.1,0.2,0.1,0.3c0.3,1.3-0.3,2.8-1.4,3.5
				c0.1,0,0.1,0,0.2,0c-2.5-5.6-3.5-11.8-3-18c-0.1,0-0.2,0-0.2,0c0.9,3.4,0.7,7.1-0.8,10.3c0.1,0,0.1,0,0.2,0
				c-3.5-5.6-5.8-11.8-6.7-18.3c-0.1,0-0.2,0.1-0.2,0.1c1.9,2.7,3.1,5.8,3.5,9c0.1,0,0.2-0.1,0.2-0.1c-4.6-6.7-7.7-14.3-9.1-22.3
				C274.8,179.5,274.6,179.6,274.6,179.7L274.6,179.7z"/>
		</g>
	</g>
	<g class="st2">
		<g>
			<path d="M290.7,214.6c0.2,0,0.2-0.3,0-0.3C290.5,214.3,290.5,214.6,290.7,214.6L290.7,214.6z"/>
		</g>
	</g>
	<g class="st2">
		<g>
			<path d="M290.2,214.1c-2.8,4.6-5.7,9.2-8.4,13.9c0.1,0,0.2,0.1,0.2,0.1c0.1-1,0.5-1.9,1-2.8c0.1-0.1-0.1-0.3-0.2-0.1
				c-0.5,0.9-0.9,1.8-1,2.9c0,0.1,0.2,0.2,0.2,0.1c2.8-4.6,5.6-9.3,8.4-13.9C290.5,214.1,290.2,214,290.2,214.1L290.2,214.1z"/>
		</g>
	</g>
	<g class="st2">
		<g>
			<path d="M273.6,185c-0.8-0.4-1.6-0.9-2.5-1.3c-0.1-0.1-0.2,0.1-0.2,0.2c2.5,3.5,5.4,6.8,8.6,9.7c1.6,1.4,3.2,2.8,4.9,4
				c0.8,0.6,1.7,1.3,2.6,1.8c0.7,0.4,1.6,0.7,2.4,0.3c0.1,0,0.1-0.1,0-0.2c-0.7-1.1-1.4-2.1-2.2-3.2c-0.1-0.1-0.3,0-0.2,0.1
				c0.7,1.1,1.4,2.1,2.2,3.2c0-0.1,0-0.1,0-0.2c-1.1,0.6-2.3-0.4-3.2-1c-0.9-0.6-1.7-1.2-2.6-1.9c-1.5-1.2-3-2.5-4.5-3.8
				c-2.9-2.8-5.6-5.8-7.9-9.1c-0.1,0.1-0.1,0.1-0.2,0.2c0.8,0.4,1.6,0.9,2.5,1.3C273.6,185.2,273.7,185,273.6,185L273.6,185z"/>
		</g>
	</g>
	<g class="st2">
		<g>
			<path d="M281.9,185.5c-0.6-1.1-1.5-2-2.6-2.5c-0.1,0-0.2,0-0.2,0.1c1.3,3.2,3,6.3,5,9.1c1,1.4,2.1,2.8,3.2,4.1
				c1.2,1.3,2.8,2.6,3.3,4.3c1.1,3.5-2,7-3.8,9.6c-2,3-3.8,6-5.2,9.3c-1.5,3.5-2.4,7.2-2.3,11.1c0,0.2,0.3,0.2,0.3,0
				c-0.2-7.4,3.4-14.1,7.4-20.1c1.7-2.6,4.3-5.5,4.1-8.8c-0.1-1.6-1-2.9-2.1-4c-1.2-1.3-2.3-2.5-3.4-3.9c-2.6-3.3-4.7-6.9-6.2-10.7
				c-0.1,0-0.1,0.1-0.2,0.1c1.1,0.5,2,1.3,2.5,2.4C281.7,185.8,282,185.7,281.9,185.5L281.9,185.5z"/>
		</g>
	</g>
	<g class="st2">
		<g>
			<path d="M283.6,218.3c-3.2,6.4-6.4,12.9-9.7,19.3c0.1,0,0.2,0.1,0.2,0.1c1.1-3,2.2-5.9,3.3-8.9c0-0.1-0.1-0.2-0.2-0.1
				c-2.4,2.1-4.4,4.5-6,7.2c-0.8,1.3-1.4,2.7-2,4.1c-0.5,1.2-1.2,2.8-0.6,4.1c0.1,0.1,0.3,0,0.2-0.1c-0.7-1.3,0.3-3.2,0.8-4.5
				c0.6-1.4,1.2-2.7,2-4c1.5-2.5,3.4-4.7,5.6-6.6c-0.1,0-0.1-0.1-0.2-0.1c-1.1,3-2.2,5.9-3.3,8.9c0,0.1,0.2,0.2,0.2,0.1
				c3.2-6.4,6.4-12.9,9.7-19.3C283.9,218.3,283.7,218.2,283.6,218.3L283.6,218.3z"/>
		</g>
	</g>
	<g class="st2">
		<g>
			<path d="M266.8,241.1c-6.7-3.9-11.7-10.3-13.9-17.7c0-0.1-0.2-0.1-0.2,0c-0.1,6.7,4.8,12.2,9.4,16.5c1.1,1,2.3,2.1,3.9,2.3
				c1.5,0.2,3.1-0.3,4.3-1.1c2.9-1.9,4.4-5.6,6-8.5c2.2-4.1,4.4-8.2,6.7-12.2c0.1-0.1-0.1-0.3-0.2-0.1c-1.8,3.4-3.6,6.7-5.5,10.1
				c-0.9,1.7-1.8,3.3-2.7,5c-0.8,1.5-1.6,2.9-2.7,4.2c-1.1,1.2-2.5,2.2-4.2,2.5c-1.9,0.3-3.4-0.4-4.8-1.7c-2.4-2.1-4.7-4.4-6.5-7
				c-2.1-2.9-3.5-6.2-3.5-9.9c-0.1,0-0.2,0-0.2,0c2.2,7.5,7.3,14,14,17.9C266.8,241.4,267,241.2,266.8,241.1L266.8,241.1z"/>
		</g>
	</g>
	<g class="st2">
		<g>
			<path d="M278.5,232.7c2.6-5.8,5.3-11.6,8.3-17.2c0.1-0.1-0.1-0.3-0.2-0.1c-3,5.6-5.8,11.3-8.3,17.2
				C278.3,232.7,278.5,232.8,278.5,232.7L278.5,232.7z"/>
		</g>
	</g>
	<g class="st2">
		<g>
			<path d="M284.8,219.5c0.2,0,0.2-0.3,0-0.3C284.6,219.2,284.6,219.5,284.8,219.5L284.8,219.5z"/>
		</g>
	</g>
	<g class="st2">
		<g>
			<path d="M180.3,271.8c-2.9,10.2-5.6,20.3-8.3,30.5c-0.7,2.9-1.5,5.7-2.2,8.6c0,0.2,0.2,0.2,0.2,0.1c2.6-10.2,5.3-20.4,8.1-30.6
				c0.8-2.9,1.6-5.7,2.4-8.6C180.6,271.7,180.3,271.6,180.3,271.8L180.3,271.8z"/>
		</g>
	</g>
	<g class="st2">
		<g>
			<path d="M180.4,277.2c-2.4,9.8-5.2,19.5-8.2,29.1c-3.1,9.6-6.5,19.1-10.2,28.5c-2.1,5.4-4.3,10.7-6.7,15.9
				c-0.1,0.1,0.2,0.3,0.2,0.1c4.1-9.2,7.8-18.6,11.3-28.1c3.5-9.5,6.6-19.1,9.4-28.9c1.6-5.5,3.1-11,4.4-16.6
				C180.7,277.1,180.4,277.1,180.4,277.2L180.4,277.2z"/>
		</g>
	</g>
	<g class="st2">
		<g>
			<path d="M162.9,329.2c-1,12.8-1.9,25.5-2.9,38.3c-0.3,3.6-0.5,7.3-0.8,10.9c0.1,0,0.2,0,0.3,0c-0.1-4.9-1.3-9.7-3.5-14
				c-0.1-0.1-0.2-0.1-0.2,0.1c-0.5,8.2-0.6,16.3-0.3,24.5c0,0.2,0.3,0.2,0.3,0c-0.2-8.2-0.1-16.3,0.3-24.5c-0.1,0-0.2,0-0.2,0.1
				c2.2,4.3,3.4,9.1,3.5,13.9c0,0.2,0.2,0.2,0.3,0c1-12.8,1.9-25.5,2.9-38.3c0.3-3.6,0.5-7.3,0.8-10.9
				C163.1,329,162.9,329,162.9,329.2L162.9,329.2z"/>
		</g>
	</g>
	<g class="st2">
		<g>
			<path d="M154.4,381.1c0.8,6.3,2.5,12.5,5,18.3c0.1,0.1,0.3,0,0.2-0.1c-2.5-5.8-4.2-11.9-5-18.2C154.6,381,154.4,381,154.4,381.1
				L154.4,381.1z"/>
		</g>
	</g>
	<g class="st2">
		<g>
			<path d="M249,265.5c5.1,6.5,9.8,13.4,14,20.5c1.2,2,2.3,4,3.5,6.1c0.1,0.1,0.3,0,0.2-0.1c-4-7.3-8.5-14.4-13.4-21.1
				c-1.3-1.9-2.7-3.7-4.1-5.5C249.1,265.2,248.9,265.3,249,265.5L249,265.5z"/>
		</g>
	</g>
	<g class="st2">
		<g>
			<path d="M269.5,299.3c2.9,11.5,6.2,22.8,9.9,34.1c1,3.2,2.1,6.3,3.2,9.4c0.1,0.2,0.3,0.1,0.2-0.1c-0.2-1.3-0.5-2.6-0.7-3.9
				c0-0.1-0.3-0.1-0.2,0c1.1,11.1,2.1,22.2,3.2,33.3c0.3,3.1,0.6,6.3,0.9,9.4c0,0.2,0.2,0.2,0.3,0c0.1-1.1,0.1-2.2,0.2-3.3
				c0-0.2-0.2-0.2-0.3,0c-0.1,1.1-0.1,2.2-0.2,3.3c0.1,0,0.2,0,0.3,0c-1.1-11.1-2.1-22.2-3.2-33.3c-0.3-3.1-0.6-6.3-0.9-9.4
				c-0.1,0-0.2,0-0.2,0c0.2,1.3,0.5,2.6,0.7,3.9c0.1,0,0.2,0,0.2-0.1c-3.9-11.1-7.5-22.4-10.6-33.9c-0.9-3.2-1.7-6.4-2.5-9.6
				C269.7,299.1,269.4,299.2,269.5,299.3L269.5,299.3z"/>
		</g>
	</g>
</g>
<g id="круг">
	<path class="st4" d="M381.4,225.3c-0.7,89.2-72.3,161.4-161.4,161.4S58.6,314.4,58.6,225.3S130.8,63,220,63.8
		C310.9,64.6,382.1,136.4,381.4,225.3z"/>
</g>
<g id="уши">
	<g>
		<path class="st5" d="M169.1,219.7c-0.4,6.3-3.6,10.5-6.5,20c-0.5,1.7-1.3,4.6-2.2,4.5c-0.9-0.1-0.7-3.3-2.7-6
			c-2-2.8-5-3.1-8.1-4.1c-8.5-2.8-13.7-9.7-16.6-13.6c-2.4-3.2-7.8-6.8-8.2-12.1c-0.1-1.3,2.4-5,4.2-8.7c1.4-2.9,3.4-4.5,4.2-5.2
			c3.5-3,10.3-11,24-27c8.4-9.8,11.4-14.7,12.5-14.1c1.3,0.8-4.5,8.3-5.8,20.8c0,0-1.6,16,4,35.8c0.2,0.7,1,3.2,1.1,6.7
			C169.2,216.9,169.2,218.2,169.1,219.7z"/>
	</g>
	<g>
		<path class="st6" d="M142.6,164.8"/>
		<g>
			<path d="M142.6,165c0.2,0,0.2-0.3,0-0.3C142.4,164.7,142.4,165,142.6,165L142.6,165z"/>
		</g>
	</g>
	<path class="st7" d="M155.8,167.4"/>
	<path class="st7" d="M164.1,156.8"/>
	<path class="st7" d="M176.1,189.6"/>
	<g id="ухо_правое">
		<path class="st8" d="M249.7,144.8c2.1-1.6,9.4,2.8,13.1,8.3c1,1.5,1,2.1,5.3,10.9c1.6,3.4,2.5,5.1,2.8,5.7c1.2,2,3,4.9,10.5,12.3
			c6.2,6.1,9.3,9.1,11.6,10.9c3.9,3,5.9,4,6.6,6.6c0.4,1.4,0.4,3.5-3.7,9.8c-4.2,6.5-7.5,11.7-14,16.2c-4.4,3.1-6.9,3.6-8.2,6.9
			c-1.6,3.8,0,7.5-1.5,8.3c-0.9,0.5-2.3-0.4-5.3-2.9c-5.6-4.6-8.4-7-9.8-9.1c-0.7-1.1-4.2-7-3.4-14.5c0.7-6.7,3.9-6.2,6.3-14.6
			c0.5-1.8,2.7-10.3,0-20.1c-0.6-2.3-1.2-3.6-2.2-5.9C252.5,160.8,246.8,147,249.7,144.8z"/>
		<path class="st9" d="M273.2,188.5"/>
		<path class="st9" d="M278.1,172"/>
		<g id="Слой_12">
			<path class="st10" d="M266.4,160.5c1.2,2.3,2.7,5.9,3.1,10.6c0.2,2.5,0,4.7-0.3,6.5"/>
			<path class="st6" d="M277.8,178.4"/>
			<path class="st6" d="M271.5,153.5"/>
		</g>
	</g>
</g>
<g id="Слой_13">
</g>
<g id="тело_1_">
	<path class="st11" d="M-203.9,328.7"/>
	<g>
		<path class="st6" d="M177.6,244.3c0.3-0.6,1.3-2.3,1.3-4.7c0-2.9-1.7-5.1-2.2-5.8c-0.4-0.5-2.5-6-6.7-17.1c-2-5.2-3-14.5-5-33.2
			c-0.3-2.7-1-9.8-0.3-17.5c0.3-2.6,0.8-6.5,2.5-11c0.7-2,1.5-3.4,1.7-3.8c2.1-4.2,4.6-6.9,5.5-7.8c3.1-3.2,6.1-5,8.1-6.1
			c3.8-2.2,7.2-3.2,8.5-3.6c5.8-1.7,6.9-0.3,18-1c6.1-0.4,8.4-0.9,14.3-0.8c2.8,0.1,4.7,0.1,7.3,0.7c1.6,0.3,6.8,1.5,11.7,5
			c3.5,2.4,7.2,6.2,10.8,13.4c7,14.3,7,29.8,7,34.9c-0.4,30.5-8.5,33.9-7,57.3c0.8,12.7,4.3,23,7.5,33.1c2.6,8.2,6.1,18.9,12.1,26.9
			c0.6,0.8,6.7,8.8,6.7,8.8c0,0,0,0,0,0.1c2,12.7,3.7,30.7,3.7,30.7c2.3,24.3,1.2,25,2,27.1c0.2,0.4,1.1,2.6,0.2,3.6
			c-0.3,0.4-0.8,0.5-1.4,0.6c-1.6,0.4-1.7,0.8-3.9,1.6c-3.5,1.4-8.7,2.9-8.8,2.9c-10.9,3-10,3.2-13.9,4.1c-4.7,1-8.3,1.4-14.1,1.8
			c-14.6,1.1-21.9,1.7-25.5,1.6c-18.9-0.5-32.1-4.8-40-6.8c-4.1-1-4.1-1.1-4.9-1.4c-1.6-0.6-2.7-0.8-3.6-1c-1.3-0.3-0.8-0.3-5.4-1.9
			c-1.5-0.5-1.8-0.6-2.3-1c-1.2-1.1-1.4-2.9-1.4-3.8c-0.3-10.5,1.6-15.9,1.6-15.9c0.8-4,0.5-12.8,0.2-30.3c-0.1-4.5-1.4-13.2-0.5-25
			c0.6-7.4,1.2-14.8,4.2-24C166.7,271.9,173.3,251.8,177.6,244.3z"/>
		<g>
			<path d="M177.7,244.3c1.4-2.4,1.8-5.2,0.7-7.9c-0.5-1.3-1.4-2.4-2-3.7c-2.2-5.1-4-10.3-6-15.5c-1.4-3.7-2.1-7.5-2.6-11.4
				c-1-6.8-1.7-13.6-2.4-20.5c-1.5-13.8-1.7-29,7.6-40.4c4.2-5.1,10.1-8.7,16.3-10.8c2-0.7,4-1.2,6-1.4c1.9-0.2,3.9,0,5.8,0
				c6.9,0.1,13.6-1,20.5-1c3.5,0,6.9,0.1,10.3,1c3.4,0.8,6.7,2.2,9.6,4.1c5.8,3.7,9.7,9.6,12.4,15.8c3.2,7.2,4.9,14.9,5.6,22.7
				c1.1,11.7,0.2,23.8-2.3,35.2c-1,4.4-2.2,8.8-3.1,13.2c-1,4.9-1.4,9.9-1.3,14.9c0.3,14.9,4.9,29.3,9.7,43.3
				c2.4,6.9,5.1,13.7,9.3,19.7c2.2,3.2,4.7,6.3,7.1,9.4c0.5,0.7,0.5,1.2,0.6,2c0.3,1.8,0.5,3.6,0.8,5.5c0.5,3.4,0.9,6.8,1.2,10.1
				c0.5,4.4,1,8.9,1.4,13.3c0.8,8.3,1.4,16.7,1.7,25.1c0,0.5,0,1,0.1,1.5c0.2,0.9,0.7,1.8,0.8,2.7c0.1,0.7,0,1.3-0.6,1.7
				c-0.5,0.4-0.9,0.4-1.4,0.6c-0.5,0.1-1,0.3-1.4,0.6c-1.5,0.7-3,1.3-4.5,1.9c-2.3,0.8-4.5,1.5-6.8,2.1c-3.9,1.1-7.8,2.5-11.7,3.5
				c-6.3,1.7-12.9,2-19.4,2.5c-5.9,0.4-11.8,0.9-17.7,1.2c-5.7,0.3-11.4-0.2-17-0.9c-6.5-0.8-13-2.1-19.3-3.8
				c-2.3-0.6-4.5-1.2-6.8-1.8c-1.9-0.5-3.8-0.9-5.6-1.6c-1.6-0.6-3.4-0.9-5-1.5c-0.8-0.3-1.6-0.6-2.4-0.9c-1.3-0.5-3.3-0.8-4.3-1.8
				c-1.4-1.4-1.2-3.6-1.2-5.4c0-1.9,0-3.7,0.2-5.6c0.2-2.3,0.5-4.7,1-7c0.6-2.3,0.8-4.6,0.9-7c0.2-5.7,0-11.5-0.1-17.2
				c-0.1-3.3,0-6.6-0.2-9.8c-0.2-2.8-0.4-5.6-0.6-8.4c-0.4-7.5,0.1-15.1,1-22.6c1.3-11.1,5.3-21.6,9.2-32
				C173.4,253.6,175.2,248.8,177.7,244.3c0.1-0.1-0.1-0.3-0.2-0.1c-2.5,4.6-4.4,9.5-6.2,14.4c-1.8,4.7-3.4,9.4-5,14.2
				c-4.4,13.1-5.7,27.3-5,41.1c0.1,2.7,0.4,5.5,0.6,8.2c0.2,3.6,0.2,7.2,0.2,10.8c0.1,5.5,0.3,11,0.1,16.5c-0.1,1.5-0.1,3-0.4,4.5
				c-0.2,1-0.5,1.9-0.7,2.9c-0.5,2.7-0.8,5.5-0.9,8.2c-0.1,1.9-0.2,3.8,0,5.7c0.1,1.2,0.5,2.4,1.4,3.2c0.9,0.7,2.2,1,3.3,1.3
				c1,0.4,2,0.7,3,1.1c1.7,0.6,3.4,0.9,5.1,1.5c1.8,0.7,3.7,1.1,5.5,1.6c2.3,0.6,4.6,1.2,6.9,1.8c11.8,3.1,24.2,5.3,36.5,4.7
				c6.1-0.3,12.1-0.8,18.2-1.2c6.4-0.5,12.8-0.8,19-2.5c4.1-1.1,8.1-2.5,12.2-3.6c2.3-0.7,4.6-1.4,6.9-2.2c1.4-0.5,2.8-1.1,4.1-1.7
				c0.9-0.4,2.4-0.5,3.1-1.3c1.2-1.4-0.4-3.8-0.5-5.5c-0.1-2.4-0.2-4.8-0.3-7.2c-0.5-10.2-1.6-20.3-2.7-30.5
				c-0.4-3.5-0.8-7-1.3-10.5c-0.2-1.6-0.4-3.2-0.7-4.8c-0.1-0.9-0.1-2.3-0.5-3.1c-0.3-0.6-0.8-1.1-1.2-1.6c-0.7-0.9-1.4-1.8-2.1-2.8
				c-1.1-1.4-2.2-2.9-3.3-4.3c-4.6-6.1-7.5-13.3-10-20.5c-2.4-6.9-4.7-13.9-6.5-20.9c-3.3-12.7-4.5-26-1.7-38.9
				c1-4.6,2.3-9.2,3.3-13.8c1.3-6.4,2-12.9,2.2-19.5c0.5-13.2-1.1-26.7-7-38.7c-2.8-5.8-6.7-10.9-12.3-14.3
				c-5.8-3.5-12.1-4.6-18.8-4.6c-7-0.1-13.9,1.1-20.9,1c-2,0-4-0.2-6,0c-2,0.2-3.9,0.7-5.8,1.3c-6,2-11.7,5.4-15.9,10.2
				c-4.5,5.1-7.2,11.5-8.3,18.2c-1.1,6.7-0.9,13.7-0.2,20.5c0.7,7.1,1.5,14.1,2.4,21.2c0.5,4,1.1,8.1,2.4,11.9
				c1.9,5.4,4,10.8,6.2,16.2c0.4,0.9,0.8,1.7,1.3,2.5c1.9,3,2,6.5,0.3,9.6C177.4,244.3,177.6,244.5,177.7,244.3z"/>
		</g>
	</g>
	<path class="st7" d="M305.2,401"/>
	<path class="st7" d="M178.5,381.6"/>
	<path class="st7" d="M164.1,378.6"/>
	<path class="st7" d="M173.7,380.6"/>
	<path class="st7" d="M322.2,326.1"/>
</g>
<g id="поводок">
	<path class="st12" d="M233.8,232.4c5.3,2.8,18.8,3.1,27.4,10.5c8.7,7.5,24.4,21.3,30,43c0.3,1.1,6,24-1.5,28
		c-5.2,2.8-15.2-4.1-21.3-11.1c-13.6-15.6-6.6-30.9-19.3-54C244.9,241.2,236.8,235.6,233.8,232.4"/>
	<path class="st12" d="M191.1,236.1c-11.1,11.7-13.3,21.5-14.7,38.1c-0.8,9.9-1.9,21,5.6,29.1c3.5,3.8,9.7,7.8,13,6.1
		c4.2-2.2,3.5-13.2-0.8-25.4C189.9,271.6,187.7,253.9,191.1,236.1z"/>
	<path class="st12" d="M169.6,331c1.9-4.4,4.1-11.2,3.6-19.5c-0.5-8.7-3.5-11.7-5.4-21c-0.5-2.7-2.8-14.5,1.1-27.3
		c1.9-6.2,8.6-19.3,24.2-31.8"/>
	<path class="st13" d="M233.6,233.7c-0.8-3.5,7.6,7.7,11.2,34.4c4.5,33.5,10,42.5,19.7,47.6c4.7,2.5,11.9,4.2,16,1
		c5.4-4.3,2.7-15.7,0.4-25.1c-7-28.7-29.6-41.8-41.6-52.9C235.6,235.5,234,235.4,233.6,233.7z"/>
	<path class="st11" d="M115.5,65.5"/>
	<path class="st14" d="M266.4,243.6"/>
	<path class="st14" d="M239.1,231.4"/>
	<path class="st12" d="M178.1,323"/>
</g>
<g id="Слой_18">
	<path class="st15" d="M165.8,343.7c-2.3-7-2.1-8.6-2.1-8.6c0.4-3.1,3-6.5,5.4-6.4c2.6,0.2,4.6,4.4,4.3,7.8c-0.2,2-1.2,3.4-1.6,3.9
		C169.7,343.1,166.5,343.6,165.8,343.7z"/>
	<path class="st16" d="M166.7,339.7c-0.1,0-1.2,2.5-2.5,6.2c-0.2,0.4-0.1,0.4-0.9,2.7c-1.8,5.2-2.2,6.2-1.9,7.6
		c0.1,0.4,0.5,2.6,1.6,2.8c1.3,0.3,3.4-2,3.7-4.3c0.3-2.3-1.2-3.1-1.9-5.8C163.7,344,166.8,339.7,166.7,339.7z"/>
	<path class="st17" d="M233.1,339.7"/>
	<path class="st15" d="M162,346"/>
</g>
<g id="Слой_20">
	<path class="st18" d="M205.9,237.1c0,0,6.5-3.1,12-1.3c1.6,0.5,2,1.1,3.5,1.1c2.9,0,5.6-2.2,5.4-3.2c-0.2-0.9-2.6,0-5.2-1.6
		c-2.8-1.7-3-4.4-4.3-4.3c-1.6,0.1-1.6,4.1-3.7,4.7c-2.1,0.5-3.6-2.9-6.3-2.7c-1.5,0.1-2.7,1.4-3.3,2.3
		C204.6,233.8,205.2,235.4,205.9,237.1z"/>
</g>
<g id="Слой_19">
</g>
<g id="нижняя_губа">
	<g>
		<path class="st19" d="M189.7,236.4c-1.1,1.2,0.1,4.8,2.1,7.1c4.6,5.3,14,4.7,16.4,4.2c0.2-0.1,1-0.3,2.2-0.3
			c2.1-0.2,3.7,0.2,4.2,0.3c4.7,1,11.3,2.5,16.2,0.5c3.4-1.4,6.3-4.6,7-8.2c0.6-3.3-0.6-7.4-2.1-7.6c-0.7-0.1-0.9,0.6-2,1.2
			c-3.2,1.9-6.6-1.7-11.6-1.1c-3.3,0.4-2.5,1.9-5.7,2.2c-5.1,0.5-8.2-3.4-11.7-1.7c-0.8,0.4-0.8,0.7-2.2,1.5
			c-0.7,0.4-2.6,1.3-5.2,1.7C192.6,237,190.7,235.4,189.7,236.4z"/>
		<g>
			<path d="M189.7,236.4c-1,1.2-0.2,3.2,0.3,4.4c0.9,1.9,2.2,3.5,3.9,4.7c3,2,6.9,2.7,10.5,2.6c1.2,0,2.4-0.1,3.6-0.3
				c2.1-0.4,4.1-0.5,6.2-0.1c4.5,1,9.2,2.1,13.9,1.3c4.3-0.8,8.3-3.9,9.5-8.3c0.5-2.1,0.4-4.5-0.4-6.4c-0.4-1-1.3-2.5-2.5-1.5
				c-0.9,0.8-1.7,1.4-2.9,1.4c-0.9,0-1.8-0.2-2.6-0.4c-2-0.6-4-1.4-6.2-1.3c-0.9,0-2,0.1-2.8,0.5c-0.7,0.3-1.2,0.8-1.8,1.2
				c-2,1.1-4.6,0.7-6.7,0c-1.7-0.6-3.4-1.5-5.2-1.5c-0.7,0-1.5,0.2-2.1,0.6c-0.7,0.4-1.3,1-2,1.4c-2,1.1-4.2,1.7-6.4,1.8
				c-1.1,0.1-2.2,0-3.3-0.2c-0.6-0.1-1.2-0.2-1.8-0.3C190.3,236,190,236.1,189.7,236.4C189.7,236.4,189.7,236.4,189.7,236.4
				c0.4-0.4,1-0.4,1.5-0.3c0.7,0.1,1.4,0.2,2.1,0.3c2.2,0.3,4.5,0,6.6-0.7c1.4-0.5,2.8-1.1,4-2.1c1.5-1.1,3.2-1,4.9-0.5
				c3.2,1.1,7.1,3,10.2,0.6c0.7-0.5,1.3-0.9,2.1-1.1c1.2-0.3,2.5-0.3,3.7-0.1c1.9,0.3,3.6,1.1,5.5,1.5c1.6,0.3,3,0,4.2-1.1
				c0.4-0.4,0.8-0.7,1.3-0.5c0.4,0.2,0.7,0.5,0.9,0.9c0.5,0.8,0.8,1.9,1,2.8c0.4,2.4,0,4.8-1.2,6.9c-1.2,2-2.9,3.7-5,4.7
				c-4.4,2.2-9.7,1.4-14.3,0.5c-1.8-0.4-3.5-0.9-5.3-0.9c-1.6-0.1-3.1,0.3-4.7,0.5c-3.1,0.4-6.4,0.2-9.4-0.7c-4-1.2-7.5-4.1-8.4-8.3
				C189.2,238.1,189.1,237.1,189.7,236.4C189.7,236.4,189.7,236.4,189.7,236.4z"/>
		</g>
	</g>
	<g id="Слой_14">
		<path class="st20" d="M192.4,238.1c-2.6-1.1-3.9-3.2-4.7-4.4c-1.6-2.5-1.9-4.8-2-5.6c-0.3-2.7,0.4-4.8,0.8-6.2
			c1.3-4.2,2.2-8.5,3.5-12.8c3.3-11,3.2-12.6,5.6-15.2c0.7-0.7,3-3,6.6-4.2c3.3-1,4.1,0,11.6-0.1c4.8-0.1,5.9-0.6,7.8,0.4
			c0.7,0.3,2.3,1.2,4.9,5.2c1.9,3,2.5,5,4.3,9.2c1.6,3.9,3.1,7.5,5.2,11.7c2,4,3.2,5.8,3.7,9.2c0.5,3.3-0.1,5.1-0.6,6.3
			c-0.3,0.6-1.2,2.3-3.1,3.5c-2.1,1.2-4.2,1-6.2,0.8c-4.1-0.5-4.2-1.9-8.8-2.7c-0.8-0.1-0.1,0-6.4-0.4c-3.2-0.2-3.9-0.3-5.1,0.1
			c-1.8,0.6-1.9,1.5-4.3,3c-0.7,0.4-2.6,1.6-5.1,2.2C198.1,238.6,195.3,239.3,192.4,238.1z"/>
	</g>
</g>
<g id="нос">
	<g>
		<path class="st5" d="M210,222.8c-1.2,1-4.7-0.8-7-2.8c-4-3.4-4.9-8-5.3-9.8c-0.4-2.2-0.8-4.2,0.2-6.3c1.1-2.3,3.4-4.2,6-4.6
			c2.7-0.4,3.2,1.4,6.5,1.4c3.7,0,4.5-2,6.8-1.5c3.9,1,5.1,7.9,5.2,8.2c0.9,5.3-1.9,9.4-2.5,10.3c-2.5,3.4-6.9,6.4-8.7,5.2
			c-1.2-0.8-1.2-3.7-1-8.4c0-0.6,0.1-1.6,0.1-1.6c0,0-0.2,2.3-0.1,5.3C210.2,221.6,210.6,222.3,210,222.8z"/>
		<g>
			<path d="M209.9,222.7c-0.5,0.4-1.4,0.2-2,0.1c-0.8-0.2-1.6-0.6-2.3-1c-1.6-0.9-3.1-2.1-4.3-3.5c-1.8-2.2-2.9-4.9-3.4-7.6
				c-0.4-1.8-0.7-3.7-0.2-5.5c0.5-1.9,1.8-3.5,3.5-4.5c1.4-0.9,3.2-1.4,4.8-0.9c1.2,0.4,2.3,1,3.6,1.2c1.5,0.2,3-0.1,4.4-0.7
				c1.1-0.5,2.1-1.1,3.4-0.7c2.4,0.6,3.7,3.4,4.4,5.6c0.7,2.2,1,4.4,0.6,6.7c-0.4,2.5-1.5,4.8-3.1,6.7c-1.1,1.4-2.5,2.6-3.9,3.5
				c-1,0.6-2.5,1.5-3.7,1.1c-1-0.3-1.2-1.7-1.3-2.6c-0.2-1.7-0.1-3.4,0-5.1c0-0.8,0-1.6,0.1-2.3c-0.1,0-0.2,0-0.2,0
				c0.1,0.4-0.1,1.2-0.1,1.7c-0.1,1.3-0.1,2.6,0,3.9c0,1,0.1,2,0.1,2.9C210.2,221.8,210.3,222.4,209.9,222.7
				c-0.1,0.1,0.1,0.3,0.2,0.2c0.3-0.3,0.3-0.6,0.3-1c0-1-0.1-1.9-0.1-2.9c0-1.4,0-2.8,0-4.2c0-0.6,0.2-1.2,0.1-1.8
				c0-0.1-0.2-0.1-0.2,0c-0.1,0.7-0.1,1.5-0.1,2.3c0,1.1-0.1,2.1-0.1,3.2c0,1.3,0,2.7,0.5,3.9c1.2,2.5,4.8,0,6.1-1
				c4.5-3.5,7.1-9.2,5.7-14.9c-0.6-2.3-1.5-4.9-3.4-6.4c-0.9-0.7-2.1-1.1-3.2-0.9c-1.3,0.3-2.4,1.1-3.7,1.4
				c-1.9,0.4-3.6-0.1-5.3-0.8c-1.4-0.6-2.9-0.6-4.4,0c-1.6,0.6-3.1,1.8-4,3.3c-1.1,1.7-1.3,3.6-1.1,5.6c0.4,3,1.2,5.9,2.8,8.4
				c1,1.6,2.4,2.9,4,4c1.3,0.9,2.9,1.9,4.6,2.1c0.5,0.1,1,0,1.4-0.3C210.2,222.7,210.1,222.6,209.9,222.7z"/>
		</g>
	</g>
	<path class="st21" d="M232.3,223.8"/>
</g>
<g id="глаза">
	<path class="st22" d="M229.1,182.3c-1.4-1.4-0.3-5,1.3-7.3c0.2-0.3,2.8-4,7.5-4.3c1-0.1,3.7-0.2,5.8,1.6c1.2,1.1,1.7,2.5,1.9,3.1
		c0.6,1.9,0.3,3.4,0.3,3.9c-0.1,0.6-0.6,2.9-2.5,4.4c-2.4,1.8-5.6,1.1-7.8,0.6c-0.1,0-1.4-0.4-4.1-1.3
		C230,182.8,229.3,182.6,229.1,182.3z"/>
	<g id="глаза_1_">
		<path class="st23" d="M245.4,177.5c0.1,3.9-3.7,6.9-7.1,7.1c-2.4,0.2-5.1-0.9-6.2-2.8c-0.4-0.8-0.9-2.3-0.9-4.1c0,0,0-0.1,0-0.2
			c0-0.6,0.2-3.5,2.4-5.3c1.3-1,2.7-1.2,3.7-1.4c0.5-0.1,1.8-0.2,3.1,0.1C242.9,171.7,245.4,174.3,245.4,177.5z"/>
		<path d="M241.9,176.4c0.8,2.6-1.3,5.5-3.9,5.6c-1.9,0.1-3.7-1.2-4.2-3.1c-0.6-2,0.3-4.2,2.2-5.1
			C238.2,172.7,241.2,174,241.9,176.4z"/>
		<path class="st24" d="M234.9,174.8c0.1,0,0.5,0.1,0.8,0.5c0.3,0.4,0.1,0.9-0.1,1.3c0,0.1-0.3,0.5-0.8,0.5
			c-0.7,0.1-1.6-0.7-1.5-1.4C233.4,175,234.3,174.7,234.9,174.8z"/>
		<circle class="st25" cx="188.5" cy="176.9" r="6.3"/>
		<circle class="st26" cx="190" cy="177.8" r="4.8"/>
		<path class="st27" d="M192.2,176.4c-1.2,0-1.5,0.6-1.5,1.4c0,0.8,0.3,1.4,1.5,1.4s1.4-0.6,1.4-1.4
			C193.7,177.1,193.4,176.4,192.2,176.4z"/>
		<path class="st27" d="M206,164.7"/>
		<path class="st26" d="M235.3,178"/>
		<path class="st27" d="M236.4,177.4"/>
		<path class="st26" d="M240.4,180.3"/>
		<path class="st28" d="M242.1,181.1"/>
		<path class="st29" d="M241.5,177.4c0-0.2,0.3-0.4,0.5-0.5c0.3,0,0.6,0.3,0.6,0.6c0,0.2-0.1,0.3-0.3,0.4
			C242,178,241.5,177.7,241.5,177.4z"/>
		<path class="st29" d="M242.1,177.4c0,0,0.1-0.1,0.1-0.1"/>
		<path class="st29" d="M247.3,177.4"/>
		<path d="M235.3,179.4"/>
		<path d="M233.8,173.8"/>
		<path class="st30" d="M230.4,179.5"/>
		<path class="st31" d="M238.2,172.3"/>
		<path class="st23" d="M237.9,169.2"/>
		<path class="st22" d="M197.3,182.1c1.4-1.4,0.3-5-1.3-7.3c-0.2-0.3-2.8-4-7.5-4.3c-1-0.1-3.7-0.2-5.8,1.6
			c-1.2,1.1-1.7,2.5-1.9,3.1c-0.6,1.9-0.3,3.4-0.3,3.9c0.1,0.6,0.6,2.9,2.5,4.4c2.4,1.8,5.6,1.1,7.8,0.6c0.1,0,1.4-0.4,4.1-1.3
			C196.4,182.5,197,182.3,197.3,182.1z"/>
		<path class="st23" d="M181.1,177.3c-0.1,3.9,3.7,6.9,7.1,7.1c2.4,0.2,5.1-0.9,6.2-2.8c0.4-0.8,0.9-2.3,0.9-4.1c0,0,0-0.1,0-0.2
			c0-0.6-0.2-3.5-2.4-5.3c-1.3-1-2.7-1.2-3.7-1.4c-0.5-0.1-1.8-0.2-3.1,0.1C183.6,171.5,181.1,174.1,181.1,177.3z"/>
		<path d="M184.9,175.9c-0.8,2.6,1.3,5.5,3.9,5.6c1.9,0.1,3.7-1.2,4.2-3.1c0.6-2-0.3-4.2-2.2-5.1
			C188.6,172.2,185.6,173.5,184.9,175.9z"/>
		<path class="st24" d="M185.9,173.7c-0.1,0-0.5,0.1-0.8,0.5c-0.3,0.4-0.1,0.9,0.1,1.3c0,0.1,0.3,0.5,0.8,0.5
			c0.7,0.1,1.6-0.7,1.5-1.4C187.4,173.9,186.6,173.6,185.9,173.7z"/>
		<path class="st26" d="M191.1,177.7"/>
		<path class="st27" d="M190,177.2"/>
		<path class="st26" d="M185.9,180"/>
		<path class="st28" d="M184.2,180.8"/>
		<path class="st29" d="M184.3,177.2c0,0-0.1-0.1-0.1-0.1"/>
		<path class="st29" d="M179,177.2"/>
		<path d="M191.1,179.2"/>
		<path d="M192.5,173.5"/>
		<path class="st30" d="M195.9,179.3"/>
		<path class="st31" d="M188.2,172.1"/>
		<path class="st23" d="M187.7,166.7"/>
		<path class="st31" d="M197,176.4c-0.4-0.8-1.2-2.2-2.6-3.4c-0.9-0.8-1.7-1.2-2.1-1.4c-0.9-0.4-2.6-1.2-4.9-1.1
			c-0.9,0-1.9,0.1-3.1,0.6c-1.6,0.8-2.4,2-2.8,2.6"/>
		<path class="st29" d="M193.1,177.1c0,0.2,0.8,0.4,0.9,0.5c0.3,0.2,0.2-0.2,0.2-0.6c0-0.2-0.3-0.4-0.5-0.5"/>
	</g>
	<path class="st31" d="M229.4,176.6c0.4-0.8,1.2-2.2,2.6-3.4c0.9-0.8,1.7-1.2,2.1-1.4c0.9-0.4,2.6-1.2,4.9-1.1
		c0.9,0,1.9,0.1,3.1,0.6c1.6,0.8,2.4,2,2.8,2.6"/>
</g>
</svg>
